<?xml version="1.0" encoding="UTF-8"?>
<svg id="Layer_2" data-name="Layer 2" xmlns="http://www.w3.org/2000/svg" viewBox="0 0 138.51 135.05">
  <defs>
    <style>
      .cls-1 {
        fill: #f8991d;
      }

      .cls-2 {
        fill: #f7991e;
      }

      .cls-3 {
        fill: #301211;
      }

      .cls-4 {
        fill: #331311;
      }

      .cls-5 {
        fill: #f8991e;
      }
    </style>
  </defs>
  <g id="Layer_1-2" data-name="Layer 1">
    <g>
      <path class="cls-3" d="M22.4,0H115.89c.6,.2,1.23,.16,1.84,.26,4.3,.7,8.19,2.36,11.59,5.11,4.64,3.77,7.58,8.58,8.74,14.45,.18,.89,.31,1.79,.46,2.68V112.65c-.12,.04-.11,.14-.11,.23-.08,1.04-.26,2.06-.48,3.07-2.44,10.99-12.35,19.07-23.6,19.08-30.04,.03-60.09,.01-90.13,0-2.38,0-4.7-.39-6.97-1.09C6.95,130.73,.01,121.3,0,110.51,0,81.86,0,53.2,0,24.54c0-1.25,.07-2.5,.27-3.73,.84-5.23,3.08-9.77,6.82-13.54C10.65,3.69,14.92,1.41,19.88,.43c.84-.16,1.7-.16,2.51-.43ZM56.22,34.59c-2.39,0-4.77,0-7.16,0-.75,0-.88,.1-.87,.87,.01,1.96-.37,3.85-1.01,5.7-5.95,17.1-11.89,34.2-17.83,51.3-.22,.63-.45,1.27-.64,1.91-.21,.7-.01,.98,.7,1.03,.11,0,.23,0,.35,0,3.4,0,6.81,0,10.21,0,.88,0,1.1-.18,1.37-1.01,1.39-4.29,2.78-8.57,4.15-12.87,.11-.36,.25-.51,.66-.51,6.83,.02,13.66,.02,20.49,0,.41,0,.55,.15,.67,.5,1.4,4.1,2.83,8.19,4.23,12.3,.57,1.68,.51,1.59,2.21,1.59,3.6,0,7.19,0,10.79,0,.94,0,1.1-.24,.81-1.12-.02-.07-.04-.15-.07-.22-6.92-19.54-13.85-39.08-20.76-58.63-.22-.63-.53-.87-1.2-.86-2.37,.04-4.73,.01-7.1,.01Zm35.32,37.72c0,7.31,0,14.62,0,21.93,0,.99,.22,1.21,1.22,1.21,3.52,0,7.04,0,10.56,0,.97,0,1.14-.16,1.14-1.14,0-14.66,0-29.32,0-43.97,0-.89-.18-1.06-1.09-1.06-3.56,0-7.12,0-10.68,0-1.04,0-1.16,.12-1.16,1.16,0,7.29,0,14.58,0,21.87Zm-.64-35.17c-.01,4.51,3.23,7.44,7.54,7.32,4.06-.11,6.94-3.45,6.85-7.5-.09-4.16-2.91-6.99-7.16-6.98-4.19,0-7.24,3.03-7.24,7.17Z"/>
      <path class="cls-5" d="M56.22,34.59c2.37,0,4.73,.02,7.1-.01,.67-.01,.98,.24,1.2,.86,6.91,19.55,13.84,39.08,20.76,58.63,.03,.07,.05,.15,.07,.22,.29,.88,.13,1.12-.81,1.12-3.6,0-7.19,0-10.79,0-1.7,0-1.64,.09-2.21-1.59-1.4-4.1-2.83-8.19-4.23-12.3-.12-.36-.26-.51-.67-.5-6.83,.02-13.66,.02-20.49,0-.42,0-.55,.15-.66,.51-1.38,4.29-2.77,8.58-4.15,12.87-.27,.84-.5,1.01-1.37,1.01-3.4,0-6.81,0-10.21,0-.12,0-.23,0-.35,0-.71-.06-.91-.33-.7-1.03,.2-.64,.42-1.27,.64-1.91,5.94-17.1,11.89-34.2,17.83-51.3,.64-1.85,1.02-3.73,1.01-5.7,0-.77,.12-.87,.87-.87,2.39,0,4.77,0,7.16,0Zm.07,10.69s-.09,.02-.13,.02c-.15,.67-.29,1.35-.47,2.01-1.92,7.19-4.22,14.27-6.47,21.36-.21,.66-.22,.65,.46,.65,3.85,0,7.69,0,11.54,0,.65,0,1.31-.02,1.96,0,.42,.01,.49-.11,.35-.5-.22-.59-.37-1.21-.57-1.81-2.02-6.3-4.07-12.59-5.88-18.95-.26-.93-.53-1.86-.79-2.79Z"/>
      <path class="cls-1" d="M91.54,72.31c0-7.29,0-14.58,0-21.87,0-1.03,.12-1.15,1.16-1.16,3.56,0,7.12,0,10.68,0,.91,0,1.09,.17,1.09,1.06,0,14.66,0,29.32,0,43.97,0,.97-.17,1.14-1.14,1.14-3.52,0-7.04,0-10.56,0-1,0-1.22-.22-1.22-1.21,0-7.31,0-14.62,0-21.93Z"/>
      <path class="cls-2" d="M90.9,37.14c0-4.14,3.05-7.17,7.24-7.17,4.25,0,7.07,2.82,7.16,6.98,.08,4.05-2.79,7.39-6.85,7.5-4.31,.12-7.55-2.8-7.54-7.32Z"/>
      <path class="cls-4" d="M56.28,45.28c.26,.93,.53,1.86,.79,2.79,1.81,6.37,3.86,12.65,5.88,18.95,.19,.6,.35,1.22,.57,1.81,.14,.39,.07,.52-.35,.5-.65-.02-1.31,0-1.96,0-3.85,0-7.69,0-11.54,0-.68,0-.67,0-.46-.65,2.25-7.09,4.55-14.17,6.47-21.36,.18-.67,.31-1.34,.47-2.01,.04,0,.09-.02,.13-.02Z"/>
    </g>
  </g>
</svg>