<?xml version="1.0" encoding="UTF-8"?>
<svg id="Layer_2" data-name="Layer 2" xmlns="http://www.w3.org/2000/svg" viewBox="0 0 82.78 94.61">
  <defs>
    <style>
      .cls-1 {
        fill: #5a479d;
      }

      .cls-2 {
        fill: #4e3795;
      }

      .cls-3 {
        fill: #dcc9e2;
      }

      .cls-4 {
        fill: #fefefe;
      }
    </style>
  </defs>
  <g id="Layer_1-2" data-name="Layer 1">
    <g>
      <path class="cls-2" d="M40.83,94.61c-.99-.33-1.98-.69-2.98-.97-7.69-2.16-15.39-4.31-23.08-6.45,.24-.3,.46-.63,.74-.89,.21-.2,.53-.27,.76-.45,.93-.71,1.85-1.44,2.76-2.17,1.02-.82,2.45-1.11,3.11-2.4,.07-.14,.28-.22,.43-.32,.31-.22,.61-.45,.93-.64,.19-.11,.41-.18,.62-.24,.18-.06,.41-.04,.55-.14,.88-.63,1.77-1.26,2.6-1.94,.44-.36,.78-.85,1.17-1.28,4.96-.01,9.91,0,14.87-.06,3.24-.04,6.43-.51,9.49-1.65,3.69-1.37,6.81-3.51,8.55-7.15,2.41-5.02,2.6-10.16,.32-15.31,.21-.43,.34-.93,.66-1.26,.45-.47,1.03-.8,1.55-1.19,2.2-1.63,4.37-3.29,6.69-4.74,.98-.61,1.9-1.33,2.86-1.98,.53-.36,1.12-.65,1.62-1.05,1.03-.83,2-1.74,3.05-2.55,.22-.17,.67-.04,1.01-.05-.43,5.38-.85,10.76-1.3,16.14-.36,4.27-.73,8.53-1.13,12.79-.14,1.54-.41,3.06-.54,4.59-.17,2-.24,4.01-.39,6.01-.13,1.75-.33,3.49-.45,5.24-.04,.52-.25,.73-.73,.86-6.01,1.66-12.02,3.34-18.03,5.01-4.87,1.36-9.75,2.71-14.62,4.07-.07,.02-.12,.11-.18,.17h-.92Z"/>
      <path class="cls-1" d="M28.44,76.71c-.39,.43-.73,.91-1.17,1.28-.84,.69-1.72,1.31-2.6,1.94-.14,.1-.37,.09-.55,.14-.21,.07-.43,.13-.62,.24-.32,.19-.62,.42-.93,.64-.15,.1-.36,.18-.43,.32-.66,1.3-2.09,1.58-3.11,2.4-.91,.74-1.83,1.46-2.76,2.17-.23,.18-.55,.26-.76,.45-.28,.26-.49,.59-.74,.89-2.16-.61-4.31-1.24-6.47-1.8-.61-.16-.84-.44-.89-1.05-.37-4.48-.76-8.96-1.15-13.43-.46-5.21-.94-10.42-1.4-15.64-.45-5.12-.9-10.24-1.35-15.36-.47-5.35-.95-10.71-1.43-16.06-.46-5.18-.9-10.36-1.36-15.55C.5,5.84,.27,3.39,.05,.94c-.03-.3-.03-.6-.05-.94H82.78c-.21,2.4-.41,4.76-.62,7.11-.47,5.27-.93,10.55-1.41,15.82-.13,1.46-.38,2.91-.53,4.37-.1,.96-.07,1.93-.16,2.9-.1,1.11-.26,2.22-.38,3.33-.09,.81-.16,1.62-.21,2.44-.08,1.18-.13,2.36-.2,3.54,0,.07-.1,.13-.15,.2-.34,.01-.79-.12-1.01,.05-1.05,.81-2.01,1.72-3.05,2.55-.5,.4-1.09,.68-1.62,1.05-.96,.65-1.88,1.37-2.86,1.98-2.33,1.45-4.49,3.12-6.69,4.74-.53,.39-1.11,.72-1.55,1.19-.32,.33-.44,.83-.66,1.26-1.85-3.08-4.48-5.14-8.26-6.09,2.83-1.06,4.93-2.75,6.41-5.01,1.46-2.23,2.1-4.81,2.07-7.51-.03-2.7-.47-5.32-1.86-7.7-1.64-3.04-4.25-4.96-7.37-6.25-3.98-1.64-8.19-2.04-12.44-2.06-6.59-.04-13.18-.01-19.76-.01-.27,0-.54,0-.9,0,0,.45,0,.81,0,1.17,0,17.15,0,34.3,0,51.44,0,.34,.03,.67,.05,1.01-.09,1.7-.18,3.39-.27,5.19h9.1Z"/>
      <path class="cls-4" d="M28.44,76.71c-2.98,0-5.97,0-9.1,0,.09-1.8,.18-3.49,.27-5.19,.37-.3,.79-.57,1.11-.92,1.22-1.36,2.42-2.76,3.62-4.14,1.54-1.78,3.06-3.57,4.63-5.33,.85-.95,1.77-1.85,2.66-2.77,0,2.82,0,5.65,0,8.45,.22,.05,.31,.09,.4,.09,3.54,0,7.08,0,10.62-.02,.64,0,1.29-.07,1.92-.19,2.5-.47,4.58-1.57,5.76-3.96,.9-1.82,.85-3.74,.54-5.68-.29-1.83-1.09-3.38-2.64-4.47-1.29-.91-2.77-1.34-4.32-1.41-1.97-.09-3.94-.07-5.91-.1,.13-.24,.23-.51,.41-.71,2-2.27,4.03-4.52,6.02-6.8,.56-.64,1.05-1.33,1.57-2,1.67-.93,2.92-2.22,3.53-4.07,.26-.19,.58-.34,.79-.58,1.09-1.24,2.16-2.5,3.24-3.75,1.71-1.96,3.42-3.92,5.15-5.86,.38-.42,.87-.73,1.31-1.09,1.39,2.38,1.82,5,1.86,7.7,.03,2.7-.6,5.28-2.07,7.51-1.48,2.26-3.58,3.95-6.41,5.01,3.78,.95,6.41,3.01,8.26,6.09,2.28,5.15,2.08,10.29-.32,15.31-1.74,3.64-4.86,5.78-8.55,7.15-3.05,1.14-6.25,1.61-9.49,1.65-4.96,.06-9.91,.04-14.87,.06Z"/>
      <path class="cls-3" d="M31.63,58.36c-.89,.92-1.81,1.81-2.66,2.77-1.56,1.76-3.09,3.55-4.63,5.33-1.2,1.38-2.4,2.78-3.62,4.14-.32,.35-.73,.62-1.11,.92-.02-.34-.05-.67-.05-1.01,0-17.15,0-34.3,0-51.44,0-.36,0-.72,0-1.17,.37,0,.64,0,.9,0,6.59,0,13.18-.02,19.76,.01,4.25,.02,8.46,.42,12.44,2.06,3.12,1.29,5.72,3.21,7.37,6.25-.44,.36-.94,.67-1.31,1.09-1.74,1.94-3.44,3.9-5.15,5.86-1.09,1.25-2.15,2.51-3.24,3.75-.21,.24-.52,.39-.79,.58,.06-.98,.19-1.96,.16-2.93-.1-3.76-2.13-6.16-5.87-6.46-3.98-.32-7.99-.26-11.98-.36-.05,0-.09,.07-.16,.11v14.69c4.82-.34,9.64,.64,14.32-.98-.52,.67-1.01,1.36-1.57,2-2,2.28-4.02,4.53-6.02,6.8-.18,.2-.28,.47-.41,.71-2.1,0-4.2,0-6.25,0-.07,.19-.11,.25-.11,.31-.01,2.33-.02,4.65-.02,6.98Z"/>
      <path class="cls-1" d="M31.63,58.36c0-2.33,.01-4.65,.02-6.98,0-.06,.04-.11,.11-.31,2.05,0,4.15,0,6.25,0,1.97,.03,3.94,.01,5.91,.1,1.55,.07,3.02,.5,4.32,1.41,1.55,1.09,2.35,2.64,2.64,4.47,.31,1.93,.36,3.86-.54,5.68-1.18,2.38-3.27,3.49-5.76,3.96-.63,.12-1.28,.19-1.92,.19-3.54,.02-7.08,.02-10.62,.02-.09,0-.18-.04-.4-.09v-8.45Z"/>
      <path class="cls-1" d="M46.01,41.57c-4.68,1.62-9.51,.63-14.32,.98v-14.69c.06-.05,.11-.11,.16-.11,4,.1,8,.05,11.98,.36,3.74,.3,5.77,2.7,5.87,6.46,.03,.98-.1,1.96-.16,2.93-.61,1.85-1.86,3.14-3.53,4.07Z"/>
    </g>
  </g>
</svg>