<?xml version="1.0" encoding="UTF-8"?>
<svg id="Layer_2" data-name="Layer 2" xmlns="http://www.w3.org/2000/svg" viewBox="0 0 1848.8 1724.15">
  <defs>
    <style>
      .cls-1 {
        fill: #c7eeff;
      }
    </style>
  </defs>
  <g id="Layer_1-2" data-name="Layer 1">
    <g>
      <g>
        <path class="cls-1" d="M390.01,944.69c13.79-1.01,27.62-3.62,41.48-2.45,.87,.07,1.75,.16,2.62,.27,.78,.1,0,0-.13-.01,.43,.07,.86,.13,1.29,.21,1.71,.3,3.41,.67,5.09,1.13,3.75,1.03,5.27,1.63,8.48,3.41,3.41,1.89,5.34,3.35,7.99,5.91,1.3,1.25,2.53,2.58,3.69,3.96,.35,.41,.68,.84,1.02,1.25,.07,.09-.64-.92-.43-.55,.06,.1,.15,.19,.2,.29,.26,.51,.57,.99,.82,1.51,.15,.31,.25,.65,.42,.94-.15-.26-.76-1.91-.37-.87,.08,.2,.16,.4,.24,.61,.75,1.94,1.39,3.92,2,5.91,1.76,5.75,3.24,11.59,4.65,17.44,4.11,17.07,7.56,34.3,10.83,51.55,3.91,20.67,7.47,41.41,10.71,62.2,1.59,10.23,3.1,20.48,4.5,30.74,.05,.37,.34,2.53,.09,.66,.07,.56,.15,1.12,.22,1.68,.17,1.27,.33,2.53,.5,3.8,.31,2.4,.62,4.81,.91,7.21,.56,4.5,1.08,9.01,1.57,13.52,1.5,13.77,3.08,27.79,2.6,41.66-.04,1.07-.09,2.13-.18,3.19-.04,.47-.09,.94-.14,1.41-.16,1.73,.34-1.87,.03-.22-.14,.74-.26,1.48-.46,2.2-.08,.28-.21,.57-.27,.86-.19,.91,.95-1.92,.29-.73-.57,1.03-.29-.4,.63-.72-.32,.11-.61,.67-.87,.93-.77,.8-1.57,1.57-2.39,2.31-2.46,2.2-5.01,3.89-8.26,5.68-6.43,3.54-13.21,5.73-20.69,7.75-17.28,4.67-34.8,8.63-52.22,12.76-19.07,4.52-38.17,8.87-57.32,13.02-38.24,8.28-76.66,15.75-115.27,22.1-38.42,6.32-77.03,11.5-115.79,15.28-17.74,1.73-37.04,7.99-54.48,1.64-.31-.11-.61-.23-.91-.35-1.02-.39,.78,.36-.2-.08-.67-.3-1.33-.61-1.98-.94-1.44-.74-2.83-1.56-4.16-2.47-.23-.16-2.03-1.54-1.02-.72-.52-.43-1.04-.86-1.54-1.31-1.14-1.02-2.22-2.11-3.23-3.25-.44-.5-.87-1.01-1.29-1.53,.81,.99-.45-.62-.69-.95-.88-1.25-1.7-2.55-2.47-3.88-.73-1.26-1.4-2.55-2.04-3.86-.3-.62-.59-1.24-.87-1.87-.16-.36-.32-.72-.47-1.08,.37,.88,.05,.11-.13-.35-4.54-11.69-6.71-24.07-9.74-36.19-4.81-19.25-9.26-38.58-13.3-58.01-3.95-19.03-7.49-38.13-10.83-57.27-2.83-16.23-5.41-31.81-5.52-48.39-.06-8.26,.48-16.07,2.15-23.82,1.46-6.81,3.45-13.55,6.92-19.36,.2-.33,.44-.65,.64-.98,.58-.95-1.31,1.47-.11,.16,.63-.69,1.26-1.38,1.96-2.01,.36-.33,.74-.66,1.12-.97,.18-.15,.37-.3,.56-.45,1.03-.87-1.33,.96-.41,.32,.96-.67,1.91-1.36,2.9-2,2.24-1.43,4.57-2.71,6.95-3.9,1.36-.68,2.74-1.34,4.13-1.96,.66-.3,1.33-.59,1.99-.88,.39-.17,.77-.36,1.17-.5-1.13,.41-.96,.4-.07,.04,7.07-2.9,14.3-5.38,21.6-7.66,18.44-5.74,37.26-10.23,56.13-14.31,22.24-4.81,44.61-8.96,67.04-12.77,23.24-3.95,46.54-7.5,69.88-10.78,2.87-.4,5.73-.8,8.6-1.2,1.38-.19,2.75-.38,4.13-.56,.64-.09,1.28-.17,1.92-.26,.41-.06,2.8-.38,1.25-.17,5.54-.74,11.08-1.47,16.63-2.18,10.28-1.32,20.56-2.59,30.86-3.8,17.1-2.01,34.22-3.88,51.37-5.46,5.84-.54,11.68-1.04,17.52-1.46,3.55-.25,6.58-2.84,6.58-6.58,0-3.37-3.02-6.84-6.58-6.58-14.29,1.02-28.56,2.46-42.8,3.99-20.25,2.16-40.46,4.59-60.66,7.21-23.74,3.08-47.45,6.42-71.11,10.1-23.62,3.67-47.19,7.67-70.66,12.21-21.07,4.08-42.09,8.55-62.85,14.01-16.21,4.26-32.41,9.05-47.75,15.87-5.02,2.23-10.02,4.73-14.47,7.98-5.29,3.86-8.69,8.05-11.36,14.08-14.24,32.28-7.2,68.63-1.38,102.02,3.46,19.86,7.27,39.67,11.47,59.39,3.98,18.65,8.63,37.12,12.98,55.69,2.99,12.78,5.59,25.76,11.39,37.64,6.09,12.47,16.42,21.97,29.81,25.97,18.87,5.65,38.84-.36,57.84-2.24,19.85-1.96,39.66-4.29,59.43-6.94,39.85-5.34,79.52-11.96,118.99-19.62,39.23-7.61,78.27-16.23,117.14-25.52,9.78-2.34,19.55-4.72,29.31-7.13,7.56-1.87,15.18-3.54,22.63-5.84,7.58-2.34,15.18-5.32,21.84-9.69,3.52-2.31,6.92-4.97,9.8-8.05,.82-.87,1.62-1.79,2.16-2.86,2.01-3.99,2.24-8.72,2.39-13.1,.21-6.06-.09-12.15-.49-18.2-1.19-18.25-3.51-36.43-5.98-54.55-2.9-21.26-6.26-42.47-9.92-63.61-3.44-19.83-7.14-39.62-11.32-59.3-2.86-13.47-5.69-27.1-9.94-40.22-1.32-4.07-2.74-8.02-5.41-11.4-9.92-12.61-24.16-19.07-39.94-20.34-13.75-1.1-27.47,1.47-41.15,2.47-3.55,.26-6.58,2.84-6.58,6.58,0,3.36,3.02,6.85,6.58,6.58Z"/>
        <path class="cls-1" d="M14.06,1027.36c13.57,9.86,27.4,19.37,41.45,28.53,17.88,11.66,36.12,22.77,54.79,33.12,20.46,11.35,41.43,21.75,63.02,30.75,20.13,8.39,40.92,15.55,62.33,19.85,18.53,3.72,38.46,6.01,57.17,2.2,16.48-3.36,31.88-11.61,45.55-21.2,15.91-11.16,30.27-24.42,43.51-38.61,13.71-14.68,26.3-30.41,38.06-46.69,10.3-14.26,19.95-29.02,28.74-44.26,6.42-11.13,12.56-22.56,17.2-34.57,.69-1.79,1.34-3.6,1.88-5.45,1-3.41-1.21-7.17-4.6-8.1-3.49-.96-7.1,1.17-8.1,4.6-.54,1.84-1.19,3.66-1.88,5.45-.2,.51-.4,1.02-.61,1.53-.1,.24-.2,.49-.3,.73-.05,.12-.1,.25-.15,.37-.4,.98,.21-.52,.29-.69-.56,1.12-1,2.31-1.52,3.45-2.56,5.65-5.38,11.17-8.33,16.62-7.83,14.47-16.56,28.45-25.84,42.03-5.32,7.78-10.83,15.43-16.55,22.92-.33,.43-.66,.87-1,1.3-.98,1.27,.23-.29-.48,.62-.79,1.01-1.58,2.02-2.37,3.03-1.48,1.88-2.98,3.75-4.49,5.6-3.09,3.8-6.24,7.56-9.46,11.26-12.61,14.53-26.19,28.33-41.21,40.38-.81,.65-1.62,1.28-2.43,1.92-.91,.71,.7-.53-.5,.38-.47,.36-.95,.72-1.43,1.08-1.82,1.36-3.66,2.69-5.52,3.99-3.55,2.47-7.18,4.83-10.91,7.02-3.57,2.1-7.22,4.05-10.97,5.82-.89,.42-1.79,.83-2.69,1.23-.41,.18-.83,.36-1.24,.54,1.37-.6,.1-.05-.5,.19-1.77,.71-3.57,1.38-5.38,1.99-3.57,1.2-7.22,2.2-10.92,2.92-.89,.17-1.77,.33-2.67,.47-.36,.06-.87,.23-1.23,.18-.06,0,1.48-.17,.73-.1-.34,.03-.68,.08-1.02,.12-1.96,.22-3.93,.35-5.9,.43-4.6,.21-9.21,.17-13.8-.08-2.42-.13-4.83-.31-7.24-.55-1.18-.11-2.36-.24-3.53-.38-.55-.06-1.09-.13-1.64-.2-.27-.03-.55-.07-.82-.11,.58,.07,.83,.12,.1,.01-20.94-3.01-41.31-9.04-61.07-16.51-2.55-.97-5.1-1.96-7.63-2.97-1.27-.51-2.55-1.03-3.82-1.55-.59-.24-1.17-.48-1.76-.73-.24-.1-2.36-.99-1.36-.57-5.21-2.2-10.37-4.49-15.51-6.86-10.3-4.76-20.45-9.82-30.47-15.12-19.23-10.17-37.99-21.2-56.37-32.82-15.11-9.56-29.96-19.52-44.53-29.87-2.83-2.01-5.65-4.04-8.46-6.08-2.88-2.09-7.34-.49-9.01,2.36-1.95,3.33-.52,6.91,2.36,9.01h0Z"/>
        <path class="cls-1" d="M197.96,1121.95c-20.97,19.56-41.25,39.87-60.77,60.88-19.52,21.01-38.3,42.72-56.27,65.07-5.32,6.62-10.57,13.3-15.76,20.02-2.3,2.98-5.08,5.86-6.06,9.58-.54,2.04-.64,4.25-.01,6.28,1.13,3.65,4.22,5.54,7.88,5.84,3.44,.28,6.73-3.23,6.58-6.58-.17-3.81-2.9-6.28-6.58-6.58,1.34,.11,2.48,.48,3.46,1.44,.26,.33,.53,.67,.79,1,.47,1.27,.62,1.59,.44,.96,.44,1.81,.16,1.57,.16,.9,0-.71,.37-.72-.14,.81,.09-.27,.12-.56,.21-.84,.22-.73,.66-.83-.24,.48,.35-.51,.62-1.06,1-1.56,1.01-1.34,2.04-2.67,3.06-3.99,.28-.36,.56-.73,.84-1.09-.11,.14-.9,1.16-.19,.25,.65-.84,1.31-1.69,1.96-2.53,4.22-5.42,8.48-10.8,12.79-16.14,8.62-10.69,17.42-21.23,26.39-31.62,18.05-20.89,36.83-41.16,56.27-60.77,10.96-11.05,22.13-21.88,33.51-32.49,2.52-2.36,2.56-6.96,0-9.31-2.7-2.48-6.62-2.51-9.31,0h0Z"/>
        <path class="cls-1" d="M350.94,1110.37c19.91,9.74,39.39,20.34,58.56,31.45,19.83,11.49,39.35,23.52,58.54,36.05,10.28,6.71,20.46,13.56,30.53,20.58,2.83,1.98,7.44,.61,9.01-2.36,1.78-3.37,.66-6.9-2.36-9.01-18.19-12.68-36.74-24.83-55.57-36.53-19.47-12.09-39.24-23.7-59.38-34.64-10.78-5.86-21.67-11.52-32.69-16.92-3.09-1.51-7.26-.94-9.01,2.36-1.56,2.96-.94,7.39,2.36,9.01h0Z"/>
        <path class="cls-1" d="M279.87,1054.46c-.28,.4-.57,.81-.86,1.2-.14,.2-1,1.31-.38,.52,.66-.83-.38,.47-.53,.66-.36,.44-.72,.87-1.08,1.3-1.24,1.45-2.54,2.84-3.9,4.17-1.41,1.38-2.89,2.7-4.42,3.95-.16,.13-.33,.27-.49,.4-.87,.71,.21-.16,.33-.25-.34,.24-.67,.51-1.01,.76-.86,.63-1.74,1.23-2.64,1.79-.78,.49-1.59,.96-2.41,1.39-.44,.23-.89,.45-1.34,.66-.19,.09-.4,.16-.58,.26,.28-.16,1.22-.48,.4-.19-.92,.32-1.84,.63-2.79,.85-.38,.09-.85,.1-1.22,.24,.12-.05,1.66-.15,.53-.08-.27,.02-.55,.04-.82,.06-.48,.02-.96,.02-1.44,0-.26-.01-1.67-.13-.57-.03,1.1,.11-.23-.08-.49-.15-.42-.11-.82-.25-1.23-.38-1.03-.32,1.34,.68,.4,.17-.33-.18-.66-.33-.99-.52-.32-.19-.63-.4-.94-.6-.83-.52,1.19,1.04,.19,.15-.56-.5-1.11-1.01-1.61-1.57-.18-.21-.92-1.13-.2-.2,.73,.94-.15-.24-.33-.52-.38-.59-.72-1.21-1.03-1.84-.08-.18-.23-.41-.27-.59-.03-.13,.54,1.5,.36,.82-.11-.41-.29-.82-.41-1.23-.14-.48-.6-1.58-.46-2.05,.05-.16,.12,1.68,.13,.95,0-.16-.03-.33-.04-.48-.03-.43-.05-.86-.04-1.29,0-.37,.09-.76,.06-1.13-.06-.72-.12,1.11-.14,.95-.02-.16,.08-.51,.11-.64,.15-.76,.38-1.48,.63-2.21,.36-1.04-.67,1.32-.15,.36,.18-.34,.35-.69,.54-1.02,.19-.33,.4-.66,.61-.98,.09-.13,.2-.26,.28-.4,.36-.6-1.12,1.3-.32,.42,.48-.53,.95-1.06,1.48-1.55,.24-.23,.5-.43,.75-.65,.6-.53-1.2,.87-.55,.42,.18-.13,.36-.26,.54-.38,.6-.41,1.22-.78,1.86-1.11,.35-.18,.7-.34,1.05-.51,.56-.27-.81,.34-.8,.34,.05,.03,.68-.25,.78-.29,.68-.24,1.38-.43,2.09-.58,.29-.06,1.72-.28,.44-.11-1.25,.16,.14,0,.45-.02,.77-.05,1.55-.05,2.33,.01,.17,.01,.33,.04,.5,.05,.65,.04-.96-.15-.93-.13,.22,.18,1.03,.2,1.33,.27,.74,.18,1.45,.44,2.16,.7,.77,.28-1.34-.62-.61-.25,.15,.08,.32,.15,.47,.23,.41,.21,.82,.44,1.22,.68,.3,.18,.59,.37,.88,.57,.17,.11,.38,.31,.57,.41,.06,.03-1.15-.94-.64-.49,.62,.54,1.23,1.07,1.8,1.66,.28,.3,.56,.6,.83,.91,.11,.13,.22,.27,.34,.41,.53,.62-.84-1.17-.39-.49,.46,.68,.93,1.36,1.33,2.08,.2,.36,.39,.72,.57,1.09,.08,.16,.14,.32,.22,.48,.33,.64-.37-.85-.32-.76,.41,.71,.62,1.71,.83,2.51,.09,.34,.17,.68,.24,1.03,.05,.23,.08,.46,.13,.69,.13,.63-.14-.87-.11-.88,.02,0,.13,2.44,.12,2.67-.09,4.73-1.13,9.23-.04,13.95,1.08,4.72,4.57,8.87,9,10.74,2.5,1.05,5.48,1.31,8.07,.38,2.95-1.06,5.04-2.91,6.88-5.38,2.37-3.17,3.96-7.09,5.54-10.7,1.85-4.22,3.54-8.51,4.95-12.9,2.7-8.4,4.88-17.4,3.69-26.25-1.12-8.32-5.45-15.69-11.84-21.09-12.36-10.44-29.69-15.48-45.75-14.29-12.82,.95-24.95,5.55-34.34,14.42-7.06,6.67-12.34,15.33-15.17,24.61-2.97,9.75-3.04,20.55,.17,30.25,4.08,12.31,12.55,22.11,22.81,29.78,2.8,2.09,5.74,3.98,8.77,5.72,2.99,1.72,7.34,.8,9.01-2.36,1.66-3.14,.83-7.18-2.36-9.01-3.08-1.77-6.07-3.7-8.91-5.83-.15-.11-.29-.23-.44-.33-.07-.05,1.17,.92,.62,.48-.33-.26-.66-.52-.98-.78-.64-.52-1.26-1.04-1.88-1.58-1.19-1.03-2.34-2.11-3.45-3.23-1.02-1.03-2-2.09-2.94-3.19-.44-.51-.86-1.04-1.28-1.56-.66-.81,1.04,1.39,.19,.24-.21-.28-.42-.56-.63-.85-1.55-2.15-2.93-4.42-4.1-6.79-.27-.54-.52-1.08-.77-1.63-.12-.27-.62-1.43-.1-.22,.5,1.18,.04,.07-.08-.22-.45-1.16-.86-2.34-1.21-3.53-.33-1.12-.62-2.26-.85-3.41-.11-.55-.22-1.09-.31-1.64-.05-.29-.09-.59-.14-.88-.11-.68,.16,1.34,.15,1.12-.01-.17-.04-.34-.06-.5-.27-2.28-.35-4.58-.26-6.87,.05-1.11,.14-2.21,.26-3.32,0-.06,.09-.41,.06-.49-.04-.11-.25,1.7-.15,1.14,.05-.28,.08-.57,.13-.85,.09-.56,.19-1.12,.3-1.68,.43-2.14,1.01-4.26,1.73-6.32,.19-.53,.38-1.06,.58-1.59,.09-.22,.18-.45,.27-.67,.52-1.31-.53,1.2-.2,.46,.45-.98,.89-1.97,1.39-2.93,1-1.94,2.12-3.82,3.36-5.61,.29-.42,.59-.84,.89-1.25,.16-.22,.33-.44,.49-.66,.53-.72-1.13,1.42-.38,.5,.69-.85,1.38-1.68,2.11-2.49,1.39-1.53,2.87-2.98,4.45-4.32,.37-.32,.75-.63,1.14-.94,.1-.08,.27-.18,.35-.28,.13-.15-1.38,1.05-.89,.69,.24-.18,.48-.36,.72-.54,.81-.59,1.64-1.15,2.48-1.69,.83-.53,1.69-1.02,2.56-1.49,.41-.22,.83-.43,1.26-.64,.26-.13,.52-.25,.78-.37,.19-.09,.38-.17,.57-.26,1.31-.6-1.01,.39-.22,.09,3.52-1.38,7.12-2.46,10.85-3.11,.48-.08,.98-.12,1.45-.23,.04,0-1.46,.18-.71,.09,.28-.03,.55-.07,.83-.1,.97-.11,1.95-.19,2.92-.25,1.89-.11,3.78-.13,5.67-.06,.91,.03,1.82,.09,2.73,.17,.49,.04,.98,.09,1.47,.14,.5,.05,2.31,.4,.34,.03,1.87,.36,3.74,.62,5.6,1.06,1.85,.44,3.68,.96,5.48,1.56,.87,.29,1.73,.6,2.58,.93,.45,.17,.91,.4,1.37,.55,.02,0-1.27-.55-.6-.25,.32,.14,.64,.28,.96,.43,3.13,1.42,6.15,3.1,8.94,5.12,.2,.15,.4,.32,.61,.45,.05,.03-1.13-.9-.58-.45,.29,.24,.59,.47,.88,.71,.72,.6,1.42,1.23,2.09,1.89,.58,.57,1.14,1.15,1.67,1.76,.25,.28,.49,.56,.72,.85,.96,1.17-.76-1.06,.1,.13,.98,1.36,1.79,2.79,2.52,4.3,.49,1.02-.53-1.38-.02-.03,.16,.43,.31,.87,.45,1.31,.31,.99,.55,1.99,.74,3.01,.04,.22,.07,.44,.11,.65,.14,.73-.11-.65-.09-.66,.02,0,.12,1.35,.14,1.54,.06,1.03,.08,2.07,.05,3.11-.03,.97-.1,1.94-.2,2.9-.03,.29-.1,.61-.1,.89,0,0,.21-1.38,.08-.64-.09,.52-.16,1.04-.25,1.56-.72,4.09-1.85,8.12-3.12,12.07-.63,1.96-1.31,3.9-2.04,5.82-.38,1-.77,1.99-1.17,2.98-.09,.21-.18,.42-.26,.63-.28,.69,.22-.52,.22-.52-.16,.57-.49,1.13-.73,1.68-.84,1.88-1.73,3.74-2.66,5.57-.41,.81-.82,1.62-1.27,2.4-.22,.38-.45,.76-.69,1.13-.79,1.18,.73-.73,.01,0-.17,.18-1.3,1.19-.4,.47,.77-.61,.28-.22,.08-.1-.91,.52,.48-.21,.59-.2-.12,0-.39,.1-.5,.14-.69,.28,1.02-.25,.91-.11-.08,.1-.6-.08-.66,0,.09-.1,1.68,.34,.78,.07-1.04-.31,1.28,.73,.33,.17-.22-.13-1.42-.94-.49-.24,.93,.7-.2-.27-.38-.45-.72-.71,.79,1.21,.02,.03-.19-.29-.38-.94-.64-1.12,0,0,.5,1.36,.3,.73-.05-.17-.13-.34-.18-.51-.13-.42-.21-.84-.3-1.27-.16-.75,.13,.64,.09,.62-.09-.03-.06-1.04-.07-1.13-.06-2.06,.2-4.11,.39-6.16,.38-3.99,.21-8.09-1.15-11.9-1.37-3.87-3.43-7.37-6.29-10.34-5.83-6.07-14.07-8.6-22.28-7.05-7.07,1.33-14.03,6.41-16.94,13.05-1.84,4.2-2.34,8.35-1.63,12.88,.52,3.34,1.97,6.69,4.01,9.39,2.65,3.51,5.82,6.07,9.91,7.72,4.08,1.65,8.82,1.55,13.04,.53,4.15-1.01,8.13-3.09,11.61-5.55,3.45-2.44,6.73-5.16,9.7-8.16,2.97-3.01,5.64-6.32,8.07-9.78,1.99-2.83,.6-7.44-2.36-9.01-3.38-1.78-6.89-.65-9.01,2.36h0Z"/>
      </g>
      <path class="cls-1" d="M266.25,269.8c10.9-.51,20.72,1.86,29.79,7.46,7.54,4.66,14.03,11.48,18.57,19.06,1.07,1.78,2.05,3.62,2.93,5.5,.2,.43,.4,.87,.59,1.31,.44,.97-.29-.77,.21,.53,.33,.86,.64,1.72,.94,2.59,1.13,3.27,2.23,6.55,3.28,9.85,2.68,8.37,5.11,16.82,7.16,25.37,1.12,4.67,2.13,9.38,3,14.11,.43,2.34,.82,4.69,1.17,7.04,.08,.56,.16,1.13,.24,1.69-.15-1.05,.08,.66,.12,.96,.15,1.22,.29,2.43,.41,3.65,.48,4.65,.75,9.33,.73,14.01-.01,2.28-.09,4.55-.26,6.82-.08,1.02-.18,2.03-.29,3.05-.03,.25-.06,.5-.09,.75,0-.07,.15-1.03,.05-.33-.08,.57-.17,1.14-.26,1.71-.34,2.05-.78,4.09-1.34,6.09-.25,.89-.52,1.78-.82,2.66-.15,.43-.3,.86-.46,1.29-.09,.25-.67,1.65-.37,.97,.29-.68-.31,.66-.43,.92-.19,.4-.39,.79-.59,1.18-.44,.84-.9,1.65-1.41,2.45-.46,.73-.95,1.43-1.46,2.12-.39,.54,.25-.33,.27-.35-.14,.16-.27,.33-.41,.49-.37,.43-.74,.86-1.13,1.27-.59,.62-1.2,1.22-1.84,1.78-.32,.28-.66,.55-.98,.83-.5,.43,.32-.24,.35-.26-.27,.19-.53,.39-.8,.57-.92,.63-1.88,1.21-2.86,1.73-.59,.31-1.18,.61-1.79,.89-.25,.12-1.8,.77-.98,.45-4.74,1.92-9.69,3.23-14.51,4.93-10.48,3.69-20.08,9.71-22.13,21.5-2.01,11.55,1.04,23.23,3.82,34.4,3.23,12.98,6.56,25.96,10.69,38.69,3.8,11.71,8.2,23.5,14.55,34.09,5.59,9.32,13.23,17.21,23.7,20.77,10.01,3.4,21.12,2.12,31.25-.04,6.63-1.41,12.83-4.36,19.54-5.44-.92,.15,.51-.06,.79-.09,.7-.07,1.39-.12,2.09-.15,1.31-.06,2.62-.07,3.93-.01,1.22,.05,2.43,.15,3.64,.29-.87-.1,.61,.1,.85,.14,.81,.14,1.61,.3,2.41,.48,2.5,.56,4.94,1.32,7.33,2.26,.63,.25,.12,.05,0,0,.28,.12,.56,.25,.84,.38,.55,.25,1.1,.52,1.65,.8,1.26,.64,2.49,1.34,3.68,2.1,2.35,1.49,3.09,2.07,5.13,4.05,2.12,2.06,2.82,2.89,4.24,5.18,.62,1,1.15,2.04,1.68,3.09,0,0,.41,.89,.18,.37-.27-.62,.29,.73,.26,.66,.42,1.06,.85,2.13,1.26,3.2,1.16,2.96,2.27,5.94,3.33,8.94,1.73,4.9,3.29,9.85,4.59,14.88,2.36,9.09,3.81,18.38,5.68,27.58,1.04,5.1,2.09,10.21,2.93,15.35,.48,2.97,.65,4.08,.94,6.98,.24,2.46,.4,4.95,.33,7.42-.01,.5-.04,1.01-.07,1.51-.02,.23-.19,1.67-.07,.85,.12-.83-.14,.64-.18,.84-.19,.88-.4,1.74-.65,2.61-.8,2.83-1.28,4.1-2.56,6.52-.57,1.07-1.18,2.12-1.85,3.14-.38,.59-.78,1.17-1.19,1.74-.17,.24-.35,.49-.54,.72,.38-.49-.03,.03-.19,.22-1.65,1.92-3.36,3.75-5.23,5.44-3.82,3.46-7.88,6.18-12.7,9.14-4.67,2.87-9.41,5.62-14.45,7.79,.61-.27-.75,.31-.93,.38-.59,.24-1.19,.47-1.79,.7-1.31,.49-2.63,.96-3.96,1.4-2.71,.89-5.46,1.67-8.23,2.35-5.58,1.36-10.91,2.26-16.14,2.78-5.87,.58-11.78,.8-17.67,.68-3.02-.06-6.03-.21-9.04-.45-2.43-.19-5.99-.57-7.71-.81-5.81-.81-11.57-1.97-17.24-3.5-2.63-.71-5.24-1.5-7.82-2.38-1.31-.45-2.62-.92-3.91-1.41-.59-.23-1.18-.45-1.77-.69-.29-.12-.58-.24-.87-.35-.96-.39,.63,.28-.31-.13-21.37-9.2-39.86-24.62-52.79-43.57-7.36-10.79-12.58-22.73-17.94-34.59-5.59-12.34-10.97-24.78-16.06-37.34-9.76-24.06-18.47-48.54-26.03-73.38-7.85-25.8-14.49-51.95-20.39-78.26-5.51-24.58-7.47-49.69-8.25-74.99-.37-11.99-.73-24.15,.19-36.12,.1-1.3,.22-2.59,.36-3.88,.07-.63,.14-1.26,.22-1.88,.09-.71,.02-.1,0,.03,.06-.4,.12-.81,.18-1.21,.39-2.52,.87-5.02,1.47-7.49,.55-2.3,1.2-4.59,1.96-6.83,.33-.99,.69-1.97,1.06-2.94,.18-.48,.37-.95,.57-1.42-.43,1.05,.14-.3,.3-.66,1.66-3.66,3.66-7.16,6.02-10.41,.17-.24,1.06-1.4,.62-.84-.47,.59,.38-.46,.51-.62,.61-.74,1.23-1.46,1.88-2.17,1.27-1.39,2.61-2.71,4.02-3.96,.64-.57,1.3-1.12,1.96-1.67,.46-.38,.95-.74,.15-.13,.4-.3,.8-.6,1.2-.89,1.5-1.08,3.05-2.1,4.64-3.04,1.53-.91,3.1-1.76,4.7-2.54,.84-.41,1.68-.8,2.53-1.18,.2-.09,1.44-.62,.68-.3-.73,.31,.66-.26,.9-.36,7.03-2.78,14.41-4.59,21.85-5.86,.97-.17,1.95-.32,2.92-.47,.45-.07,.9-.14,1.36-.2,.53-.08,1.7-.23,.47-.07,1.97-.26,3.95-.49,5.93-.7,3.89-.4,7.79-.71,11.7-.97,7.42-.49,14.84-.78,22.26-1.16,3.19-.17,5.92-2.6,5.92-5.92,0-3.07-2.71-6.08-5.92-5.92-16.19,.85-32.45,1.31-48.45,4.11-15.71,2.75-31.28,8.25-43.32,19.04-14.31,12.84-20.48,31.56-22.27,50.22-1.17,12.2-.78,24.66-.43,36.9,.38,13.44,1.21,26.88,2.59,40.25,1.31,12.72,3.05,25.44,5.81,37.93,3.05,13.83,6.37,27.6,9.92,41.3,6.68,25.76,14.36,51.25,23.3,76.31,9.33,26.19,19.99,51.89,31.48,77.2,5.5,12.1,10.91,24.16,18.64,35.05,7.13,10.05,15.49,19.19,25.06,26.97,19.03,15.45,41.4,25.18,65.68,28.55,23.78,3.3,49.27,2.12,71.67-7.17,10.82-4.48,21.29-10.75,30.28-18.26,8.6-7.19,15.47-17.18,17.33-28.41,1.78-10.76-.92-22.22-3.02-32.75-1.89-9.47-3.5-19.03-5.67-28.44-2.6-11.24-6.43-22.2-10.84-32.85-4.59-11.08-13.87-18.8-24.81-23.27-10.82-4.42-23.02-5.01-34.21-1.66-6.49,1.94-12.71,4.04-19.43,5.08-.51,.08-1.45,.19-2.75,.31-1.37,.12-2.74,.21-4.12,.24-1.13,.03-2.25,.02-3.38-.04-.64-.03-1.27-.07-1.91-.13-.38-.03-1.96-.26-.82-.08-2.22-.36-4.4-.88-6.51-1.65-.38-.14-1.41-.59-.48-.17-.54-.25-1.08-.5-1.62-.78-1-.52-1.97-1.09-2.91-1.71-.25-.17-1.49-1.05-1.13-.78,.37,.28-.69-.56-.88-.73-.93-.79-1.82-1.64-2.66-2.52-2.13-2.22-3.02-3.4-4.66-5.89-6.68-10.15-10.81-21.23-14.57-32.67-4.3-13.08-7.73-26.43-11.05-39.79-1.32-5.3-2.61-10.58-3.49-15.97-.2-1.24-.11-.69-.07-.41-.05-.33-.08-.67-.12-1-.08-.67-.14-1.33-.2-2-.13-1.54-.2-3.08-.19-4.62,0-1.28,.07-2.56,.21-3.83,.08-.71,.02-.1,0,.03,.05-.3,.1-.6,.16-.9,.15-.78,.34-1.56,.58-2.33,.09-.28,.54-1.52,.4-1.21-.14,.32,.44-.84,.58-1.09,.32-.56,.66-1.1,1.06-1.61-.63,.81,.41-.39,.64-.62,.37-.38,.77-.74,1.17-1.09,.2-.18,.41-.35,.62-.51-.22,.17-.83,.54,.1-.04,1.02-.63,2.01-1.28,3.08-1.83,.5-.26,1.01-.5,1.52-.75,.12-.06,1.2-.54,.61-.28-.54,.23,.34-.14,.36-.15,1.19-.47,2.39-.91,3.6-1.33,2.57-.89,5.17-1.68,7.76-2.52,5.03-1.64,10.26-3.44,14.65-6.47,3.74-2.58,6.81-5.72,9.4-9.45,5.08-7.29,7.19-16.22,8.18-24.91,1.07-9.42,.51-18.99-.7-28.37-2.41-18.68-7.2-36.94-13.09-54.81-2.61-7.92-5.43-15.64-10.18-22.57-5.91-8.63-13.62-16.08-22.77-21.22-10.25-5.76-21.98-8.41-33.71-7.86-3.19,.15-5.92,2.61-5.92,5.92,0,3.09,2.71,6.07,5.92,5.92Z"/>
      <g>
        <path class="cls-1" d="M1214.39,707.37c-7.27-15.98-16.94-30.78-28.49-44-11.24-12.87-24.37-24.08-38.61-33.52-14.31-9.49-29.86-17.04-45.98-22.89-16.37-5.94-33.35-9.83-50.6-12.12-16.83-2.23-33.89-2.72-50.82-1.44-17.39,1.32-34.69,4.35-51.41,9.33-16.55,4.93-32.64,11.72-47.59,20.36-14.93,8.62-28.85,19.19-41.03,31.4-12.86,12.9-23.76,27.72-32.4,43.74-10.4,19.26-18.05,40.2-21.27,61.9-2.96,19.96-2.48,40.16,1.88,59.89,4.06,18.43,11.53,36.19,21.55,52.16,10.23,16.31,23.1,30.99,37.79,43.42,15.25,12.9,32.27,23.62,50.52,31.74,19.06,8.48,39.13,14.41,59.79,17.37,22.23,3.18,44.56,3.2,66.8,.13,11.19-1.54,22.25-3.89,33.11-7,11.93-3.42,23.57-7.87,35.19-12.22,9.55-3.57,19.07-7.32,28.19-11.91,4.16-2.09,8.23-4.37,12.2-6.8,2.12-1.3,4.22-2.64,6.29-4.01,1.03-.68,2.06-1.37,3.08-2.07,.52-.35,1.12-.67,1.58-1.09,.25-.23,.95-.47-.46,.13-.68,.29-1.77,.53-2.28,.53,0,0-2.28-.35-.98-.07,1.5,.31-1.64-.82-.32-.15,.97,.49,1.94,.99,2.9,1.52,2.77,1.54,5.49,3.17,8.24,4.75,7.31,4.18,14.84,8.15,22.84,10.86,7.78,2.63,16.73,3.94,24.31-.02,4.41-2.3,8.03-6.72,9.04-11.63,1.1-5.33-.08-10.68-2.13-15.63-4.76-11.51-12.28-21.59-18.04-32.59v6.65c11-21.03,18.77-43.79,22.2-67.3,3.44-23.62,2.88-47.57-2.19-70.92-2.88-13.27-7.3-26.11-12.89-38.48-1.42-3.15-6.24-4.15-9.01-2.36-3.25,2.1-3.88,5.64-2.36,9.01,.37,.81,.73,1.63,1.09,2.45,.18,.41,.35,.82,.53,1.23-.38-.88,.06,.14,.11,.27,.72,1.74,1.42,3.49,2.08,5.25,1.29,3.4,2.48,6.83,3.56,10.3,2.15,6.87,3.89,13.87,5.22,20.94,.3,1.6,.58,3.2,.84,4.81,.14,.86,.27,1.71,.39,2.57,.06,.43,.12,.86,.18,1.29,.1,.73-.08-.71,.06,.5,.43,3.54,.79,7.09,1.04,10.65,.49,7.11,.57,14.25,.25,21.37-.16,3.56-.42,7.12-.77,10.67-.16,1.62-.34,3.23-.55,4.84-.02,.16-.19,1.5-.09,.74,.1-.76-.08,.57-.1,.73-.14,.97-.28,1.93-.43,2.89-1.12,7.09-2.62,14.12-4.5,21.05-1.89,6.99-4.16,13.88-6.77,20.62-2.37,6.11-5.1,12.17-8.48,18.74-.66,1.28-1.36,2.48-1.55,3.93-.26,1.91,.36,3.41,1.23,5.05,.86,1.62,1.76,3.23,2.67,4.82,1.78,3.1,3.65,6.16,5.5,9.22,1.77,2.92,3.53,5.85,5.17,8.84,.7,1.26,1.37,2.54,2.01,3.83,.32,.66,.64,1.32,.94,1.98,.09,.19,.56,1.24,.2,.43-.38-.85,.19,.48,.26,.65,.47,1.21,.88,2.44,1.21,3.69,.15,.58,.26,1.17,.39,1.76,.2,.91-.31-.08-.05-.47-.11,.16,.07,.85,.08,1.04,.02,.54,0,1.07-.01,1.61-.05,1.56,.38-1.3-.05,.17-.07,.25-.68,1.9-.2,.85,.45-1-.41,.63-.57,.92-.47,.82-.02-.46,.31-.37-.02,0-.6,.66-.56,.62-.2,.21-.42,.39-.62,.6-.74,.76,.16-.48,.41-.27,.04,.03-2.06,1.2-2.21,1.31-.61,.44,1.47-.49,.74-.31-.19,.05-.38,.15-.57,.2-.34,.1-.68,.21-1.03,.3-.4,.1-.81,.16-1.22,.26-.97,.22,.76-.12,.81-.1-.16-.06-.79,.07-.96,.08-.89,.06-1.78,.05-2.66,0-.4-.02-.8-.06-1.2-.09-1.38-.1,1.53,.29-.18-.02-2.04-.37-4.05-.85-6.03-1.47-1.01-.32-2.01-.66-3-1.03-.5-.19-1.01-.38-1.51-.58-.25-.1-.5-.2-.75-.3-.94-.37-.25-.16,.25,.12-1.96-1.08-4.14-1.85-6.15-2.85-6.68-3.34-12.95-7.39-19.55-10.87-3.21-1.69-6.83-3.34-10.36-1.36-2.17,1.22-4.18,2.85-6.27,4.22-2.25,1.47-4.52,2.9-6.83,4.27-4.29,2.56-8.69,4.92-13.2,7.09-2.27,1.09-4.56,2.13-6.88,3.13-.58,.25-1.16,.5-1.74,.74,1.38-.59-.14,.05-.65,.26-1.22,.5-2.45,1-3.68,1.49-23.81,9.47-48.04,18.23-73.46,22.18-.73,.11-1.46,.22-2.2,.33-.37,.05-.73,.11-1.1,.16-.21,.03-1.38,.19-.5,.07,.83-.11-.1,.01-.22,.03-.37,.05-.73,.09-1.1,.14-.91,.11-1.82,.22-2.73,.33-2.9,.33-5.81,.6-8.72,.82-5.92,.44-11.87,.66-17.81,.64-5.84-.02-11.68-.26-17.51-.73-2.79-.22-5.58-.5-8.36-.83-.69-.08-1.38-.17-2.08-.26-.35-.04-.69-.09-1.04-.13,1.49,.19,.52,.07,.2,.02-1.54-.22-3.09-.45-4.63-.7-10.96-1.76-21.78-4.34-32.35-7.73-5.27-1.69-10.47-3.57-15.59-5.66-.62-.25-1.23-.51-1.85-.76-1.11-.46,0,0,.19,.08-.31-.13-.61-.26-.92-.39-1.29-.56-2.58-1.13-3.86-1.71-2.48-1.13-4.94-2.3-7.37-3.52-9.52-4.78-18.68-10.28-27.36-16.47-1.05-.75-2.09-1.5-3.12-2.27-.45-.33-.9-.67-1.35-1.01-.26-.19-.51-.39-.77-.58-1.31-1,1.11,.87-.19-.14-2.01-1.57-4-3.18-5.95-4.82-3.99-3.37-7.85-6.9-11.55-10.59-3.67-3.65-7.19-7.45-10.54-11.4-1.61-1.9-3.18-3.84-4.72-5.8-.72-.92,.06,.08,.17,.23-.19-.25-.38-.49-.57-.74-.38-.49-.75-.99-1.12-1.49-.83-1.12-1.65-2.25-2.45-3.39-5.82-8.25-10.92-17.02-15.16-26.19-.48-1.05-.96-2.1-1.42-3.15-.24-.55-.87-1.89-.24-.55-.32-.7-.59-1.42-.88-2.13-.92-2.28-1.79-4.59-2.6-6.91-1.68-4.81-3.13-9.69-4.33-14.64-.6-2.49-1.15-4.99-1.62-7.5-.47-2.44-1.21-5.13-1.25-7.61,.03,1.5,.01,.09-.07-.58-.07-.54-.13-1.09-.19-1.64-.15-1.33-.28-2.66-.4-3.99-.22-2.6-.38-5.21-.47-7.82-.18-5.3-.1-10.61,.26-15.91,.18-2.7,.43-5.39,.75-8.07,.08-.65,.13-1.32,.25-1.97-.24,1.33-.03,.22,.07-.47,.2-1.4,.43-2.81,.67-4.2,1.94-11.32,5.08-22.43,9.19-33.15,.49-1.28,.99-2.55,1.51-3.81,.14-.34,.28-.68,.42-1.02,.08-.18,.53-1.26,.2-.49-.33,.78,.13-.31,.21-.49,.18-.43,.37-.85,.56-1.27,1.25-2.84,2.57-5.65,3.94-8.42,2.62-5.28,5.45-10.46,8.52-15.49,2.45-4.02,5.06-7.94,7.81-11.75,.67-.93,1.35-1.85,2.05-2.77,.32-.42,.64-1.03,1.04-1.37-.1,.08-.95,1.22-.24,.32,.22-.28,.44-.56,.66-.84,1.46-1.84,2.95-3.66,4.47-5.44,6-7.01,12.53-13.56,19.52-19.58,1.75-1.51,3.52-2.98,5.33-4.42,.44-.35,.87-.7,1.31-1.04,.22-.17,.44-.34,.66-.52,.73-.57-.07,.29-.34,.26,.51,.06,2.38-1.8,2.84-2.14,3.65-2.69,7.39-5.26,11.22-7.69,7.78-4.94,15.9-9.33,24.27-13.18,1.02-.47,2.04-.93,3.06-1.38,.45-.2,.9-.39,1.35-.59,.26-.11,.51-.22,.77-.33,.95-.41,.34,0-.22,.09,1.01-.18,2.15-.89,3.11-1.27,1.1-.44,2.21-.88,3.33-1.3,4.32-1.65,8.7-3.17,13.12-4.55,8.8-2.75,17.78-4.96,26.84-6.63,2.29-.42,4.59-.81,6.89-1.17,1.05-.16,2.1-.32,3.14-.47,.28-.04,.56-.08,.84-.12,1.15-.16-.36,.06-.49,.07,.7-.03,1.41-.18,2.1-.27,4.56-.56,9.14-1,13.73-1.3,9.25-.61,18.54-.7,27.8-.26,4.66,.22,9.32,.58,13.96,1.06,1.12,.12,2.25,.24,3.37,.38,.56,.07,1.12,.14,1.68,.21,.33,.04,2.3,.28,1.23,.16-1.17-.14,.79,.11,1.01,.14,.56,.08,1.12,.16,1.68,.25,1.19,.18,2.37,.36,3.55,.56,9.09,1.5,18.09,3.53,26.94,6.09,4.37,1.26,8.7,2.65,12.99,4.18,2.24,.79,4.46,1.62,6.67,2.49,.97,.38,1.94,.77,2.91,1.17,.52,.21,1.03,.42,1.55,.64,.23,.1,1.12,.43,.18,.07-1.01-.38,.15,.07,.37,.16,8.41,3.62,16.6,7.77,24.47,12.46,3.86,2.3,7.64,4.73,11.34,7.29,1.87,1.3,3.72,2.63,5.55,3.99,.44,.33,.88,.66,1.32,1,.22,.17,.44,.34,.66,.5,.46,.35,.36,.63-.35-.27,.63,.79,1.81,1.42,2.6,2.06,7.11,5.73,13.81,11.98,19.98,18.71,3.11,3.39,6.09,6.9,8.92,10.52,.08,.11,.45,.66,.52,.66,0,0-.81-1.07-.39-.5,.34,.45,.68,.89,1.02,1.34,.72,.96,1.42,1.92,2.12,2.89,1.36,1.89,2.68,3.81,3.96,5.75,5.02,7.62,9.42,15.63,13.2,23.93,1.43,3.15,6.23,4.15,9.01,2.36,3.25-2.09,3.89-5.64,2.36-9.01Z"/>
        <path class="cls-1" d="M805.44,741.16c-18.11,6.46-34.86,15.96-49.44,28.53-13.41,11.56-24.7,25.73-33.19,41.25-8.67,15.86-14.73,33.21-17.32,51.11-2.93,20.24-2.4,40.63,.74,60.81,3,19.32,8.62,38.3,17.09,55.94,.99,2.05,2.02,4.09,3.1,6.1l1.03-7.98c-5.37,6.7-10.75,13.39-16.12,20.09-3.59,4.48-8.17,8.51-9.64,14.27-1.88,7.33,2.67,14.51,10.17,15.79,3.69,.63,7.4,.09,11.06-.55,3.51-.62,6.96-1.55,10.37-2.56,6.89-2.04,13.63-4.56,20.5-6.7,1.29-.4,2.58-.79,3.89-1.13,.56-.15,1.12-.28,1.68-.4,.26-.06,.51-.11,.77-.16,.76-.14,1.56,.1-.59,.05,.38,0,.81-.05,1.19-.08,1.51-.11-1.74-.38-.68-.12,.56,.14,1.53,.78-.86-.39,.45,.22,.91,.41,1.37,.62,6.33,2.96,12.6,6.26,18.49,10.02,3.7,2.36,7.21,5.01,10.9,7.38,4.1,2.63,8.29,5.11,12.57,7.43,8.86,4.81,18.09,8.96,27.54,12.49,18.4,6.89,37.73,11.07,57.29,12.81,19.32,1.72,39.08,.98,58.12-2.84,17.96-3.6,35.41-10.15,51.46-18.95,29.14-15.98,56.66-41.37,66.17-74.17,.99-3.41,1.74-6.88,2.25-10.4,.49-3.39-.84-7.24-4.6-8.1-3.12-.71-7.57,.95-8.1,4.6-.53,3.66-1.32,7.28-2.37,10.83-.47,1.58-.98,3.14-1.54,4.68-.31,.85-.63,1.69-.97,2.53-.17,.42-.32,.85-.51,1.26,.84-1.72-.08,.16-.24,.51-3.14,6.98-7.18,13.47-11.75,19.6-.7,.95,.04-.03,.15-.19-.29,.39-.6,.76-.9,1.14-.6,.76-1.22,1.51-1.84,2.25-1.36,1.63-2.77,3.22-4.21,4.78-2.72,2.93-5.57,5.74-8.53,8.43-1.51,1.37-3.04,2.7-4.61,4.01-.79,.66-1.58,1.31-2.38,1.95-.27,.21-.54,.43-.81,.64-.27,.21-.54,.43-.81,.64,.65-.5,.69-.53,.11-.08-3.47,2.62-7.02,5.14-10.68,7.49-7.17,4.62-14.68,8.7-22.45,12.22-.98,.45-1.96,.88-2.95,1.31-.22,.09-1.89,.8-.41,.18-.5,.21-1,.41-1.5,.62-2,.82-4.01,1.59-6.04,2.34-4.23,1.55-8.52,2.94-12.85,4.16-4.16,1.17-8.35,2.18-12.59,3.03-2.11,.42-4.23,.81-6.35,1.14-.88,.14-1.77,.27-2.65,.4-1.8,.27,1.43-.17-.37,.05-.71,.09-1.42,.18-2.13,.26-9.46,1.09-19.01,1.51-28.53,1.31-4.67-.1-9.34-.35-14-.75-2.33-.2-4.65-.44-6.97-.72-.58-.07-1.16-.14-1.74-.21-1.87-.23,.87,.13-.27-.03-1.25-.18-2.5-.35-3.75-.55-9.41-1.46-18.72-3.55-27.84-6.26-4.47-1.33-8.89-2.8-13.26-4.42-2.18-.81-4.35-1.66-6.51-2.54-.54-.22-1.08-.44-1.61-.67,1.36,.57-.42-.18-.57-.25-1.07-.46-2.13-.94-3.2-1.42-8.68-3.94-17.09-8.48-25.12-13.61-6.75-4.31-13.13-8.98-20.19-12.8-2.94-1.59-5.92-3.12-8.94-4.56-2.24-1.07-4.36-2.17-6.89-2.26-5.36-.18-11.05,2.22-16.03,3.89-6.75,2.26-13.47,4.66-20.37,6.4-1.61,.41-3.23,.78-4.87,1.08-.57,.11-3.24,.38-.91,.19-.72,.06-1.43,.17-2.15,.22-.67,.05-1.34,.08-2.01,.07-.22,0-.46-.05-.67-.03-1.03,.07,1.84,.39,.84,.11-.42-.12-.92-.31-1.35-.38,1.61,.25,1.38,.68,.72,.28-.25-.15-.54-.38-.8-.48,1.58,.62,1.13,1.03,.7,.52-.12-.14-.27-.29-.41-.41-.77-.68,1.02,1.46,.48,.59-.47-.75,.16-.53,.24,.72-.01-.19-.15-.53-.21-.71-.37-.98-.04,1.78,.1,.71,.02-.17,.08-.71,.03-.86-.19,1.25-.22,1.52-.09,.83,.05-.22,.1-.43,.17-.65,.27-.92,.62-.59-.15,.19,.23-.23,.4-.82,.56-1.11,.43-.77,.93-1.48,1.43-2.21,.58-.84-1.06,1.14,.17-.19,.42-.45,.81-.93,1.23-1.38,.33-.36,.69-.69,1.01-1.06,5.69-6.53,10.89-13.57,16.31-20.32,.57-.72,1.15-1.43,1.72-2.14,1.92-2.39,2.53-5.18,1.03-7.98-2.09-3.91-4.01-7.9-5.77-11.97-.22-.51-.59-1.42-.15-.35-.23-.57-.47-1.13-.7-1.7-.43-1.06-.85-2.12-1.26-3.19-.83-2.16-1.62-4.33-2.36-6.52-3.07-8.98-5.48-18.19-7.27-27.5-.46-2.36-.87-4.74-1.25-7.12-.19-1.19-.37-2.38-.54-3.58-.04-.28-.08-.55-.12-.83,.01,.08,.15,1.15,.05,.37-.09-.74-.19-1.47-.28-2.21-.57-4.78-.98-9.58-1.23-14.39-.48-9.45-.31-18.93,.64-28.35,.11-1.06,.22-2.12,.35-3.18,.07-.61,.14-1.23,.23-1.84-.21,1.36,.01-.06,.09-.61,.33-2.25,.71-4.48,1.14-6.71,.84-4.35,1.87-8.67,3.14-12.92,1.2-4.03,2.57-8.02,4.1-11.94,.38-.98,.78-1.94,1.17-2.91,.48-1.18-.42,.96,.09-.21,.22-.52,.45-1.03,.67-1.55,.84-1.91,1.73-3.81,2.65-5.69,3.69-7.51,8.01-14.71,12.92-21.49,.62-.85,1.24-1.69,1.87-2.53,.15-.19,.29-.38,.44-.58,.46-.6-.29,.36-.29,.37-.02-.27,.87-1.11,1.05-1.33,1.37-1.71,2.77-3.38,4.21-5.03,2.79-3.18,5.73-6.24,8.8-9.16,3.1-2.95,6.34-5.76,9.7-8.42,.47-.37,1.14-.88,.24-.2,.4-.3,.79-.61,1.19-.91,.93-.7,1.88-1.39,2.83-2.07,1.78-1.27,3.59-2.5,5.42-3.69,3.73-2.41,7.57-4.65,11.51-6.71,2-1.05,4.03-2.05,6.08-3,.96-.45,1.92-.88,2.88-1.3,.32-.14,.65-.28,.97-.42,.11-.05,.94-.4,.19-.08-.75,.32,.08-.03,.19-.08,.33-.14,.66-.27,.99-.41,2.16-.88,4.34-1.7,6.54-2.49,3.24-1.15,5.75-4.54,4.6-8.1-1.03-3.19-4.63-5.84-8.1-4.6h0Z"/>
        <g>
          <circle class="cls-1" cx="938.15" cy="783.69" r="26.98" transform="translate(-40.12 1516.69) rotate(-76.72)"/>
          <circle class="cls-1" cx="1021.54" cy="785.11" r="26.98"/>
          <circle class="cls-1" cx="1104.93" cy="785.11" r="26.98"/>
        </g>
      </g>
      <g>
        <path class="cls-1" d="M1661.97,1094.68c5.67,3.28,11.17,6.85,16.46,10.71,1.28,.93,2.55,1.88,3.81,2.85-.77-.59,.77,.6,1.07,.84,.78,.62,1.55,1.24,2.31,1.86,2.45,2.01,4.85,4.07,7.2,6.2,4.92,4.45,9.62,9.14,14.07,14.06,2.2,2.42,4.33,4.9,6.41,7.42,1.01,1.22,2,2.46,2.98,3.71,.24,.31,.49,.62,.73,.94-.16-.21-.64-.84,.1,.14,.54,.71,1.08,1.42,1.61,2.14,7.8,10.53,14.61,21.79,20.33,33.58,1.43,2.95,2.78,5.94,4.09,8.94,.5,1.14,.17,.39,.06,.14,.15,.37,.31,.73,.46,1.1,.3,.73,.6,1.47,.9,2.21,.63,1.57,1.23,3.14,1.82,4.72,2.29,6.14,4.29,12.38,5.99,18.71,1.73,6.41,3.15,12.91,4.25,19.46,.25,1.47,.48,2.93,.69,4.4,.06,.39,.11,.78,.17,1.18,.15,1.02-.12-.93,.01,.09,.11,.88,.22,1.77,.33,2.65,.39,3.34,.7,6.7,.92,10.06,.43,6.52,.53,13.06,.29,19.59-.12,3.27-.32,6.53-.61,9.79-.13,1.48-.28,2.96-.45,4.44-.09,.79-.19,1.58-.28,2.37-.15,1.26-.04,.37,0,.1-.08,.59-.16,1.18-.25,1.77-1.36,9.33-3.45,18.55-6.32,27.54-1.35,4.24-2.88,8.43-4.57,12.55-.26,.64-.62,1.63-.14,.34-.19,.5-.42,.98-.63,1.47-.45,1.03-.91,2.06-1.39,3.08-.91,1.97-1.86,3.93-2.86,5.86-3.9,7.61-8.42,14.9-13.49,21.8-.61,.83-1.23,1.64-1.85,2.46-.63,.84,.21-.27,.28-.36-.15,.21-.31,.41-.47,.61-.4,.5-.79,1.01-1.19,1.51-1.28,1.6-2.59,3.17-3.93,4.72-2.8,3.23-5.72,6.36-8.76,9.37-2.99,2.97-6.09,5.82-9.28,8.57-1.6,1.37-3.22,2.72-4.87,4.04-.4,.32-.8,.64-1.2,.95-.36,.29-1.63,1.39-.24,.19-.82,.71-1.74,1.32-2.61,1.97-6.83,5.06-13.99,9.65-21.42,13.78-3.8,2.11-7.67,4.11-11.59,5.98-1.88,.9-3.78,1.77-5.69,2.61-.95,.42-1.9,.9-2.88,1.25,1.73-.62,.13-.05-.31,.13-.6,.25-1.21,.5-1.82,.74-8.07,3.26-16.32,6.05-24.71,8.39-8.47,2.36-17.07,4.26-25.74,5.7-2.18,.36-4.36,.7-6.55,1.01-.27,.04-.53,.07-.8,.11-.85,.12,1.32-.17,.48-.06-.53,.07-1.06,.14-1.6,.21-1.13,.14-2.26,.28-3.4,.4-4.41,.5-8.83,.88-13.25,1.15-8.87,.54-17.77,.63-26.65,.26-4.44-.18-8.87-.48-13.3-.89-2.28-.21-4.55-.45-6.82-.72-1.06-.13-2.14-.23-3.2-.4,1.39,.23,.42,.06-.32-.05-.6-.08-1.2-.17-1.79-.26-17.41-2.57-34.56-6.94-51-13.23-2.03-.78-4.05-1.6-6.07-2.43-.99-.41,.29,.13,.41,.17-.24-.1-.49-.21-.73-.31-.48-.21-.97-.42-1.45-.63-1.03-.45-2.05-.9-3.07-1.37-4-1.82-7.95-3.76-11.83-5.83-7.6-4.05-14.96-8.57-21.97-13.56-1.75-1.25-3.47-2.53-5.18-3.82-1.23-.93,.94,.74-.27-.21-.36-.28-.72-.56-1.07-.84-.92-.73-1.83-1.46-2.73-2.21-3.31-2.73-6.52-5.58-9.63-8.54-6.17-5.88-12.35-12.23-17.33-19.17,1.05,1.46,.06,.07-.22-.29-.32-.42-.63-.84-.95-1.26-.67-.9-1.33-1.81-1.98-2.72-1.27-1.78-2.5-3.59-3.7-5.41-2.42-3.69-4.69-7.48-6.81-11.35-2.16-3.94-4.15-7.96-5.99-12.06-.45-1.01-.88-2.02-1.32-3.03,.71,1.64,0,0-.17-.41-.26-.64-.52-1.29-.78-1.93-1.42-3.57-2.71-7.19-3.88-10.85-2.26-7.08-4.05-14.31-5.41-21.61-.52-2.77-.96-5.56-1.36-8.35-.04-.3-.15-1.24,.02,.16-.04-.34-.09-.67-.13-1.01-.08-.67-.16-1.34-.24-2.01-.16-1.41-.3-2.83-.43-4.25-.95-10.71-.93-21.5,.11-32.2,.12-1.27,.26-2.53,.41-3.8,.08-.63,.16-1.26,.24-1.89,.11-.91-.17,1.16-.03,.26,.06-.39,.11-.78,.17-1.18,.38-2.58,.81-5.14,1.31-7.7,1-5.15,2.23-10.25,3.69-15.28,1.43-4.92,3.07-9.79,4.92-14.57,.45-1.16,.91-2.31,1.38-3.45,.09-.23,.75-1.79,.4-.96-.34,.81,.05-.12,.14-.32,.15-.36,.31-.71,.46-1.07,1.06-2.41,2.16-4.8,3.32-7.16,4.5-9.18,9.75-17.98,15.65-26.33,1.48-2.09,3-4.16,4.55-6.2,.95-1.25-.53,.66,.44-.57,.38-.49,.77-.98,1.16-1.47,.82-1.03,1.66-2.06,2.5-3.08,3.29-3.97,6.72-7.81,10.28-11.53,7.17-7.48,14.88-14.45,23.02-20.86,.5-.39,.99-.78,1.49-1.17-1.21,.94,.28-.21,.61-.46,1.13-.86,2.27-1.71,3.42-2.55,2.04-1.49,4.11-2.95,6.2-4.38,4.32-2.94,8.74-5.75,13.24-8.4,4.58-2.7,9.25-5.24,14-7.63,2.34-1.18,4.7-2.32,7.08-3.42,1.15-.53,2.31-1.06,3.48-1.57,.58-.26,1.16-.51,1.75-.77,.29-.13,.58-.25,.88-.38,.17-.07,1.43-.61,.57-.24-.77,.33,1.02-.42,1.23-.51,.59-.24,1.18-.48,1.77-.72,1.25-.5,2.51-1,3.77-1.48,2.45-.94,4.92-1.83,7.4-2.69,4.96-1.71,9.97-3.25,15.03-4.63,5.05-1.37,10.16-2.57,15.29-3.6,2.57-.51,5.14-.98,7.72-1.4,1.25-.2,2.5-.4,3.76-.58,.63-.09,1.26-.18,1.88-.27-1.68,.24,.45-.06,.92-.12,10.44-1.31,20.97-1.87,31.49-1.62,5.22,.12,10.43,.44,15.62,.96,1.26,.13,2.52,.27,3.77,.42,.63,.08,1.26,.16,1.88,.24,.33,.04,1.23,.18-.26-.04,.39,.06,.78,.11,1.18,.17,2.59,.37,5.17,.79,7.74,1.27,10.35,1.91,20.54,4.68,30.43,8.29,2.42,.88,4.82,1.82,7.21,2.81,.3,.12,.6,.25,.9,.37-.19-.08-1.22-.53-.16-.06,.59,.26,1.19,.51,1.78,.78,1.19,.53,2.37,1.06,3.55,1.61,4.75,2.22,9.4,4.66,13.95,7.27,2.94,1.69,6.88,.69,8.6-2.26,1.71-2.93,.7-6.91-2.26-8.6-19.17-11.03-40.27-18.73-62.05-22.59-21.39-3.79-43.24-4.23-64.77-1.41-22.06,2.89-43.38,8.85-63.83,17.57-19.99,8.53-38.66,19.8-55.68,33.3-16.79,13.32-31.63,29.01-43.91,46.57-12.19,17.44-21.62,36.95-27.38,57.45-5.92,21.05-7.93,43.27-5.84,65.03,2.38,24.77,9.46,48.97,21.48,70.79,8.73,15.85,20.04,30.37,33.18,42.81,13.01,12.32,27.83,22.77,43.66,31.12,16.08,8.48,33.25,14.97,50.86,19.47,17.88,4.56,36.33,7.15,54.77,7.85,18.56,.71,37.18-.61,55.49-3.75,17.55-3.01,34.81-7.87,51.26-14.71,16.47-6.85,32.17-15.41,46.4-26.21,14.41-10.94,27.14-23.67,37.74-38.35,10.62-14.71,18.7-31.25,24.04-48.58,6.96-22.63,9.27-46.78,7.37-70.34-2.2-27.27-9.73-53.87-21.85-78.39-11.98-24.25-28.63-46.43-48.87-64.39-9.89-8.77-20.64-16.61-32.07-23.24-2.94-1.7-6.89-.68-8.6,2.26-1.72,2.93-.69,6.9,2.26,8.6Z"/>
        <path class="cls-1" d="M1544.78,1059.14c-24.1,16.63-43.83,38.79-58.84,63.86-15.18,25.36-25.7,53.57-31.89,82.42-6.25,29.11-8.39,59.23-5.92,88.91,2.39,28.72,8.9,57.04,20.78,83.36,10.74,23.82,26.38,45.96,46.95,62.28,2.73,2.17,5.52,4.27,8.38,6.25,2.71,1.88,7.1,.59,8.6-2.26,1.7-3.21,.64-6.6-2.26-8.6-1.27-.88-2.52-1.77-3.75-2.69-.39-.29-2.37-1.95-.87-.65-.68-.59-1.42-1.11-2.11-1.67-2.39-1.93-4.72-3.95-6.98-6.04-4.54-4.2-8.81-8.7-12.79-13.44-1-1.19-1.99-2.4-2.95-3.63-.23-.29-.45-.66-.72-.92,1.19,1.15,.32,.41,.03,.03-.55-.73-1.1-1.46-1.64-2.2-1.87-2.54-3.66-5.13-5.38-7.78-3.49-5.36-6.69-10.92-9.59-16.62-1.54-3.02-3-6.08-4.38-9.17-.28-.62-.55-1.25-.82-1.87-.16-.38-.32-.75-.49-1.13-.58-1.34,.55,1.34,0-.01-.68-1.65-1.36-3.31-2-4.97-2.42-6.24-4.55-12.58-6.41-19.01-1.93-6.69-3.57-13.47-4.94-20.31-.68-3.39-1.29-6.8-1.83-10.22-.27-1.72-.53-3.44-.77-5.17-.05-.38-.38-1.82-.01-.06-.09-.42-.11-.87-.17-1.3-.11-.87-.22-1.74-.32-2.61-1.68-14.23-2.26-28.59-1.82-42.92,.23-7.33,.72-14.65,1.48-21.94,.17-1.64,.35-3.28,.55-4.92,.11-.89,.22-1.79,.34-2.68,.04-.34,.21-1.9,.01-.11,.07-.6,.16-1.19,.25-1.78,.51-3.57,1.07-7.13,1.71-10.67,2.55-14.29,6.14-28.41,10.81-42.16,1.19-3.52,2.46-7.01,3.8-10.48,.59-1.52,1.19-3.04,1.8-4.55,.33-.82,.68-1.64,1.02-2.46,.59-1.42-.55,1.28,.06-.13,.23-.54,.47-1.09,.7-1.63,2.81-6.47,5.89-12.83,9.24-19.04,3.39-6.28,7.05-12.4,11.01-18.34,1.92-2.89,3.91-5.73,5.97-8.52,.51-.7,1.03-1.39,1.55-2.08,.26-.34,.52-.69,.78-1.03,.91-1.2-.86,1.09,.07-.09,1.07-1.35,2.14-2.7,3.23-4.04,8.78-10.7,18.66-20.51,29.57-29.04,.28-.22,1.34-1.2,.08-.06,.31-.28,.68-.52,1.02-.78,.68-.52,1.37-1.03,2.06-1.53,1.38-1.01,2.78-2,4.19-2.97,2.7-1.86,4.19-5.6,2.26-8.6-1.73-2.69-5.71-4.25-8.6-2.26h0Z"/>
        <path class="cls-1" d="M1578.93,1071.88c2.86,1.94,5.67,3.95,8.43,6.04,.31,.24,.62,.48,.93,.71,.78,.58-1.18-.93,.02,.02,.61,.48,1.22,.96,1.83,1.45,1.33,1.07,2.65,2.15,3.95,3.26,5.05,4.27,9.88,8.81,14.47,13.58,4.6,4.78,8.95,9.79,13.04,15.01,.23,.3,.47,.6,.7,.9-1.01-1.3-.05-.06,.13,.17,.46,.6,.92,1.21,1.37,1.82,1,1.34,1.98,2.69,2.94,4.06,1.88,2.67,3.71,5.38,5.46,8.13,3.52,5.51,6.78,11.19,9.79,16.99,1.51,2.91,2.95,5.86,4.33,8.83,.64,1.39,1.27,2.78,1.89,4.18,.34,.77,.67,1.54,1,2.31,.15,.35,.57,1.37,0-.02,.21,.49,.41,.99,.62,1.48,5.04,12.26,9.06,24.94,12.11,37.84,1.56,6.59,2.87,13.24,3.93,19.93,.25,1.54,.48,3.09,.7,4.64,.05,.36,.45,2.94,.16,1.12,.15,.93,.24,1.87,.36,2.8,.42,3.43,.77,6.86,1.07,10.3,1.16,13.52,1.38,27.11,.72,40.66-.33,6.8-.89,13.58-1.67,20.34-.18,1.57-.38,3.14-.58,4.71-.21,1.62,.2-1.41-.03,.21-.04,.31-.09,.63-.13,.94-.13,.94-.27,1.88-.41,2.82-.51,3.44-1.09,6.87-1.72,10.29-2.45,13.31-5.76,26.45-9.96,39.32-2.08,6.37-4.37,12.68-6.88,18.9-.29,.72-.58,1.44-.88,2.16-.15,.36-.3,.71-.45,1.07-.36,.91,.61-1.41,0,0-.67,1.57-1.35,3.13-2.04,4.68-1.38,3.1-2.83,6.17-4.32,9.22-5.78,11.76-12.42,23.1-19.94,33.83-1.81,2.59-3.68,5.14-5.59,7.65-2,2.63-.5,7.15,2.26,8.6,3.32,1.75,6.47,.55,8.6-2.26,16.48-21.67,29.09-46.08,38.33-71.65,9.46-26.16,15.16-53.64,17.37-81.36,2.23-27.83,.68-56-4.82-83.38-5.34-26.55-14.69-52.47-28.32-75.91-13.89-23.89-32.3-44.85-54.37-61.49-2.64-1.99-5.32-3.9-8.06-5.76-2.73-1.85-7.09-.61-8.6,2.26-1.68,3.18-.66,6.63,2.26,8.6h0Z"/>
        <path class="cls-1" d="M1560.29,1065.23c-1.76,49-3.52,98.01-5.28,147.01-1.75,48.75-3.5,97.51-5.25,146.26-.99,27.5-1.97,55-2.96,82.51-.12,3.29,2.98,6.44,6.29,6.29,3.51-.16,6.16-2.76,6.29-6.29,1.76-49,3.52-98.01,5.28-147.01,1.75-48.75,3.5-97.51,5.25-146.26,.99-27.5,1.97-55,2.96-82.51,.12-3.29-2.98-6.44-6.29-6.29-3.51,.16-6.16,2.76-6.29,6.29h0Z"/>
        <path class="cls-1" d="M1409.83,1129.78c19.92,9.56,41.11,16.26,62.64,21.09,23.03,5.17,46.53,8.3,70.06,10,22.86,1.64,45.83,1.88,68.72,.69,20.66-1.07,41.34-3.26,61.66-7.19,15.42-2.98,30.9-6.93,45.14-13.69,1.33-.63,2.64-1.29,3.93-1.99,2.9-1.56,4.05-5.82,2.26-8.6-1.9-2.94-5.5-3.93-8.6-2.26-1.29,.7-2.6,1.36-3.93,1.99-.7,.33-1.4,.65-2.11,.97-.36,.16-.72,.32-1.09,.48-.15,.06-.29,.13-.44,.19-.95,.41,1.52-.63,.61-.26-3.2,1.3-6.43,2.51-9.7,3.59-7.61,2.52-15.39,4.51-23.23,6.19-4.41,.95-8.83,1.79-13.28,2.55-2.33,.4-4.66,.77-7,1.13-1.19,.18-2.39,.36-3.58,.53-.54,.08-1.09,.15-1.63,.23-.3,.04-.61,.08-.91,.12-1.35,.19,1.57-.21,.21-.03-10.24,1.34-20.51,2.34-30.82,3.02-22.47,1.49-45.03,1.57-67.51,.31-11.6-.65-23.19-1.66-34.73-3.08-1.3-.16-2.59-.32-3.88-.49-.43-.06-.86-.1-1.29-.17,.15,.02,1.51,.21,.38,.05-.79-.11-1.58-.22-2.36-.33-2.86-.4-5.71-.84-8.56-1.29-5.65-.91-11.27-1.92-16.88-3.06-10.91-2.21-21.74-4.86-32.39-8.08-5.07-1.53-10.1-3.19-15.08-5-2.46-.89-4.92-1.83-7.35-2.8-1.2-.48-2.4-.97-3.6-1.47-.24-.1-.47-.21-.71-.3,1.73,.67,.44,.19,.08,.03-.59-.25-1.18-.51-1.76-.76-2.32-1.02-4.62-2.08-6.9-3.17-2.96-1.42-6.93-.91-8.6,2.26-1.48,2.81-.91,7.08,2.26,8.6h0Z"/>
        <path class="cls-1" d="M1349.14,1267.75h414.98c3.29,0,6.44-2.89,6.29-6.29-.15-3.41-2.76-6.29-6.29-6.29h-414.98c-3.29,0-6.44,2.89-6.29,6.29,.15,3.41,2.76,6.29,6.29,6.29h0Z"/>
        <path class="cls-1" d="M1416.18,1402.92c8.25-4.86,16.82-9.17,25.61-12.96,.19-.08,1.94-.82,1.04-.45-.9,.38,.85-.35,1.05-.43,1.14-.47,2.28-.93,3.42-1.38,2.3-.91,4.62-1.79,6.94-2.63,4.63-1.68,9.31-3.24,14.02-4.67,9.68-2.94,19.51-5.37,29.44-7.34,5-.99,10.03-1.87,15.07-2.64,1.21-.18,2.42-.36,3.64-.53,.22-.03,2.18-.3,1.21-.17-.93,.13,.07,0,.3-.04,.38-.05,.76-.1,1.14-.15,2.59-.33,5.19-.64,7.79-.91,20.75-2.19,41.68-2.61,62.51-1.37,5.18,.31,10.36,.72,15.53,1.24,2.61,.26,5.22,.55,7.83,.86,1.22,.15,2.45,.3,3.67,.46,.3,.04,.61,.09,.92,.12-.18-.02-1.45-.2-.3-.04,.76,.11,1.52,.21,2.28,.32,10.11,1.44,20.16,3.3,30.11,5.58,9.72,2.23,19.34,4.87,28.83,7.95,4.7,1.53,9.36,3.17,13.98,4.92,2.21,.84,4.41,1.71,6.6,2.6,.53,.22,1.06,.43,1.58,.65,.26,.11,.53,.22,.79,.33,.79,.33-1.11-.47-.32-.14,1.17,.5,2.34,1,3.51,1.52,2.12,.94,4.23,1.9,6.33,2.89,2.97,1.4,6.92,.93,8.6-2.26,1.48-2.79,.92-7.11-2.26-8.6-18.22-8.59-37.32-15.27-56.85-20.2-20.55-5.19-41.59-8.52-62.71-10.22-21.04-1.7-42.23-1.7-63.26,.09-21.01,1.79-41.93,5.26-62.26,10.89-19.36,5.36-38.3,12.67-55.93,22.31-2.09,1.14-4.17,2.32-6.22,3.53-2.83,1.67-4.1,5.74-2.26,8.6,1.84,2.85,5.57,4.04,8.6,2.26h0Z"/>
      </g>
      <g>
        <path class="cls-1" d="M755.55,1681.01c-4.79-2.5-9.44-5.28-13.81-8.47-.49-.35-.97-.71-1.45-1.08-.8-.61,.6,.48-.18-.15-.23-.19-.47-.37-.7-.56-1.08-.87-2.13-1.77-3.16-2.7-1.89-1.71-3.7-3.51-5.4-5.41-.84-.94-1.66-1.91-2.45-2.9-.44-.54-.01-.01,.06,.09-.18-.23-.35-.47-.52-.7-.4-.55-.8-1.1-1.18-1.66-1.49-2.17-2.84-4.45-4.02-6.81-.26-.53-.52-1.06-.77-1.6-.11-.25-.83-1.94-.45-1-.49-1.21-.94-2.44-1.34-3.68-.87-2.66-1.53-5.38-2.01-8.13-.04-.23-.28-1.77-.16-.92-.08-.6-.14-1.21-.21-1.81-.08-.79-.16-1.58-.23-2.37-.17-1.87-.32-3.74-.46-5.61-.33-4.4-.6-8.8-.83-13.2-.55-10.26-.95-20.54-1.23-30.81-.26-9.51-.44-19.02-.38-28.53,.06-10.08,.56-20.15,.75-30.23,.46-23.9,.28-47.8,.99-71.69,.32-10.92,.84-21.83,1.8-32.72,.23-2.64,.5-5.28,.79-7.91,.13-1.15,.26-2.31,.4-3.46,.08-.67,.17-1.33,.25-2,.04-.28,.07-.57,.11-.85-.08,.63-.06,.45,.01-.07,.69-4.88,1.48-9.75,2.46-14.58,1.83-9.07,4.26-18.04,7.63-26.67,.18-.47,.37-.94,.56-1.4,.12-.3,.79-1.9,.25-.62,.42-.99,.86-1.98,1.31-2.96,.92-2.01,1.91-4,2.95-5.95,2.02-3.78,4.27-7.44,6.77-10.93,.28-.39,.57-.78,.85-1.17,.13-.18,.98-1.31,.54-.73-.45,.59,.56-.71,.72-.9,.35-.44,.71-.88,1.07-1.31,1.4-1.68,2.86-3.3,4.38-4.87,1.48-1.53,3.01-3,4.6-4.41,.8-.72,1.62-1.42,2.45-2.1,.38-.32,.77-.63,1.16-.95,.2-.16,.39-.31,.59-.47,.9-.72-.43,.31,.16-.12,3.73-2.76,7.59-5.29,11.65-7.53,2.51-1.38,5.06-2.69,7.64-3.92,1.3-.62,2.61-1.22,3.93-1.8,.37-.16,1.43-.62,1.42-.62-.45,.19,.56-.23,.5-.21,.41-.17,.83-.34,1.24-.51,22.72-9.21,46.82-13.41,70.67-15.11,23.43-1.66,46.94-.89,70.32,1.2,4.8,.43,9.6,.9,14.39,1.45,2.42,.28,4.84,.57,7.26,.89,.17,.02,1.35,.18,.6,.08-.69-.09,.24,.03,.32,.04,.57,.08,1.13,.16,1.7,.24,1.32,.19,2.65,.38,3.97,.59,10.13,1.56,20.21,3.56,30.09,6.29,4.92,1.36,9.79,2.9,14.58,4.67,1.08,.4,2.15,.81,3.21,1.23,.62,.24,1.24,.49,1.86,.75,.26,.11,.53,.22,.79,.33,.91,.38-.79-.34,.11,.05,2.34,1.02,4.66,2.08,6.94,3.22,4.43,2.21,8.72,4.68,12.83,7.44,.92,.62,1.83,1.26,2.73,1.91,.52,.38,1.04,.77,1.56,1.15,.05,.03,.78,.59,.26,.19-.5-.38,.39,.31,.47,.37,1.94,1.55,3.84,3.17,5.65,4.87,1.75,1.64,3.44,3.36,5.04,5.14,.81,.9,1.6,1.81,2.36,2.74,.36,.43,.7,.87,1.05,1.31,.43,.54-.03-.04-.1-.13,.23,.3,.45,.6,.68,.9,3.12,4.22,5.77,8.75,8.15,13.42,1.3,2.54,2.5,5.13,3.63,7.75,.4,.93,0-.04,.37,.89,.28,.69,.56,1.38,.83,2.08,.51,1.3,1,2.6,1.47,3.91,1.96,5.42,3.62,10.94,5.03,16.52,5.86,23.16,7.5,46.24,7.84,70.44,.33,23.43-.77,46.86-1.57,70.27-.92,26.78-2.03,53.89-6.54,80.07-2.27,13.17-5.38,26.23-9.77,38.86-1.93,5.56-3.43,9.3-6.29,14.63-1.23,2.3-2.55,4.54-3.98,6.72-.67,1.02-1.35,2.03-2.06,3.02-.32,.45-.65,.9-.98,1.35-.16,.22-.33,.44-.5,.66,.37-.49,.25-.31-.05,.07-2.97,3.69-6.18,7.15-9.71,10.31-.85,.76-1.71,1.5-2.58,2.22-.4,.33-.81,.66-1.22,.98-.18,.15-.92,.71,0,0-.28,.21-.55,.42-.83,.63-1.8,1.34-3.66,2.62-5.56,3.82-3.88,2.46-7.94,4.62-12.13,6.51-.56,.25-1.12,.49-1.67,.74-1.08,.48,.63-.24-.47,.2-1.14,.46-2.28,.92-3.43,1.35-2.15,.81-4.32,1.56-6.51,2.26-9.16,2.92-18.59,4.89-28.09,6.35-1.19,.18-2.38,.35-3.57,.52-.28,.04-.55,.08-.83,.11,.1-.01,.97-.13,.25-.03-.65,.08-1.29,.17-1.94,.25-2.5,.31-5,.59-7.5,.85-4.94,.51-9.88,.92-14.83,1.28-24.27,1.76-48.54,2.47-72.83,.53-25.69-2.05-51.37-6.84-76.14-15.17-12.01-4.04-23.14-8.7-34.39-14.51-2.93-1.51-6.64-.76-8.36,2.19-1.6,2.74-.75,6.84,2.19,8.36,24.07,12.42,50.04,20.89,76.61,25.98,26.69,5.11,53.95,7.1,81.1,6.5,21.61-.48,43.5-1.9,64.86-5.29,19.25-3.05,38.71-8.48,55.15-19.28,8.27-5.43,15.67-12.08,21.75-19.89,7.11-9.15,12.24-19.34,16.08-30.25,9.32-26.5,13.05-54.71,15.05-82.62,1.82-25.37,2.43-50.85,3.16-76.27,.7-24.54,.81-49.19-1.93-73.62-2.7-24.09-7.95-48.21-19.29-69.82-9.97-18.99-25.97-33.28-45.12-42.68-19-9.33-39.77-14.37-60.61-17.52-21.63-3.27-43.61-5.16-65.48-5.61-25.43-.53-51.09,1.07-76.02,6.35-22.74,4.82-45.98,12.86-64.52,27.24-14.76,11.45-25.13,27.06-31.94,44.31-7.37,18.65-10.43,38.8-12.22,58.68-2.08,23.03-2.23,46.19-2.43,69.29-.11,12.49-.19,24.98-.45,37.47-.2,10.11-.7,20.21-.72,30.31-.04,20.32,.63,40.67,1.81,60.95,.52,8.99,.78,18.31,2.83,27.1,2.58,11.09,8.38,21.19,16.12,29.47,7.42,7.94,16.6,14.19,26.19,19.2,2.93,1.53,6.64,.75,8.36-2.19,1.61-2.75,.75-6.83-2.19-8.36Z"/>
        <circle class="cls-1" cx="751.5" cy="1382.09" r="16.52" transform="translate(-757.17 936.2) rotate(-45)"/>
        <circle class="cls-1" cx="751.5" cy="1458.78" r="16.52" transform="translate(-811.41 958.66) rotate(-45)"/>
        <circle class="cls-1" cx="751.5" cy="1526.04" r="16.52" transform="translate(-858.96 978.36) rotate(-45)"/>
        <circle class="cls-1" cx="751.5" cy="1603.92" r="16.52" transform="translate(-914.03 1001.17) rotate(-45)"/>
        <path class="cls-1" d="M753.16,1378.37c-9-5.34-18.95-9.28-29.2-11.43-9.89-2.07-21.18-3.44-30.95-.05-4.76,1.65-9.21,4.31-12.52,8.15-3.13,3.64-5.45,7.87-6.72,12.51-1.28,4.68-1.39,9.46-.6,14.23,.75,4.55,2.93,8.54,5.88,12.04,3.05,3.63,7.14,6.52,11.31,8.72,4.29,2.27,8.92,4.04,13.65,5.16,3.11,.73,6.77-.97,7.52-4.27,.71-3.13-.94-6.73-4.27-7.52-1.7-.4-3.37-.88-5.02-1.45-.86-.3-1.72-.62-2.56-.96-1.33-.54,1.27,.56-.04-.02-.5-.22-1-.45-1.49-.69-1.68-.81-3.31-1.71-4.87-2.72-.36-.24-.72-.48-1.08-.73-.29-.2-.99-.54-1.17-.85,.01,.02,1.24,1,.48,.36-.16-.14-.33-.27-.49-.4-.36-.3-.72-.62-1.07-.94-.65-.6-1.26-1.22-1.85-1.88-.25-.28-.61-.6-.79-.93,0,.01,.95,1.3,.41,.52-.17-.25-.35-.49-.51-.74-.44-.66-.84-1.34-1.19-2.05-.09-.18-.17-.35-.25-.53-.42-.86,.28,.66,.27,.65-.26-.26-.37-1.04-.48-1.39-.24-.81-.42-1.64-.56-2.47-.04-.21-.06-.43-.1-.63,.36,1.69,.14,1.12,.1,.67-.05-.53-.09-1.07-.12-1.6-.04-.86-.03-1.71,.02-2.57,.03-.43,.07-.85,.11-1.28,.08-1-.1,.64-.1,.67,0-.31,.1-.64,.16-.95,.33-1.82,.97-3.48,1.53-5.23-.57,1.78-.21,.5,.03,0,.21-.43,.43-.86,.66-1.28,.44-.79,.92-1.56,1.44-2.29,.12-.17,.27-.34,.37-.51-.83,1.38-.59,.75-.27,.36,.27-.33,.55-.64,.83-.96,.65-.7,1.33-1.36,2.06-1.97,1.08-.9-1.12,.8,.02-.02,.35-.25,.7-.49,1.06-.71,.95-.6,1.95-1.09,2.96-1.57,.73-.34-1.16,.44-.4,.18,.24-.08,.47-.18,.71-.27,.54-.19,1.08-.37,1.63-.52,1.04-.3,2.1-.54,3.17-.72,.25-.04,.51-.08,.76-.12,.88-.15-1.62,.17-.29,.04,.51-.05,1.03-.11,1.54-.15,1.16-.09,2.33-.13,3.5-.13,2.22,0,4.43,.14,6.63,.36,.54,.06,1.09,.12,1.63,.18,.27,.03,.54,.08,.81,.1-.14-.01-1.49-.21-.41-.05,1.22,.18,2.43,.37,3.64,.6,5.1,.95,10.12,2.34,14.99,4.15,.64,.24,1.28,.48,1.91,.73,.25,.1,.51,.2,.76,.31,.19,.08,.38,.16,.57,.23,.42,.18,.25,.1-.52-.22,.53,.08,1.19,.52,1.69,.74,.62,.28,1.24,.57,1.86,.87,2.4,1.16,4.75,2.42,7.04,3.78,2.75,1.63,6.83,.71,8.36-2.19,1.56-2.95,.75-6.62-2.19-8.36h0Z"/>
        <path class="cls-1" d="M752.32,1453.41c-8.69-4.85-18.03-8.69-27.64-11.28-10.12-2.72-21.16-4.79-31.54-2.32-9.12,2.17-17.62,8.78-20.2,18.04-2.69,9.64,1.57,19.6,8.02,26.71,7.5,8.27,18.33,12.88,29.25,14.2,1.45,.18,3.34-.81,4.32-1.79,1.06-1.06,1.86-2.8,1.79-4.32-.07-1.58-.59-3.22-1.79-4.32-1.27-1.17-2.62-1.58-4.32-1.79-1.08-.13,.39,.03,.47,.07-.17-.08-.6-.09-.76-.12-.51-.08-1.02-.18-1.52-.28-1.01-.21-2.01-.45-3.01-.73-.93-.26-1.85-.56-2.76-.89-.49-.17-.96-.37-1.45-.55-.63-.23,.59,.26,.57,.25-.34-.17-.71-.31-1.06-.47-1.81-.84-3.57-1.81-5.24-2.9-.81-.53-1.56-1.15-2.37-1.67,1.42,.91,.09,.06-.28-.25-.41-.34-.8-.69-1.19-1.05-.65-.6-1.28-1.24-1.89-1.89-.32-.35-.64-.71-.94-1.08-.15-.18-.29-.39-.45-.56,.34,.34,.76,1.01,.19,.24-1.09-1.48-2.05-3.06-2.84-4.73-.09-.18-.17-.46-.29-.64,.71,1.06,.39,.97,.21,.49-.16-.44-.33-.87-.47-1.31-.28-.87-.51-1.77-.68-2.67-.03-.14-.15-.57-.11-.67,0,0,.16,1.67,.09,.61-.02-.4-.06-.79-.08-1.19-.01-.45-.01-.91,0-1.36,0-.17,.02-.34,.03-.51,.05-.7,.41-1.1-.06,.27,.28-.8,.34-1.7,.6-2.52,.07-.22,.16-.43,.23-.64,.19-.62-.33,.73-.3,.68,.23-.44,.42-.91,.67-1.35,.41-.74,.9-1.41,1.36-2.11-1,1.51-.24,.33,.11-.06,.34-.38,.69-.74,1.06-1.09,.33-.31,.66-.61,1.01-.9,1.01-.84-.89,.62-.03,.02,.79-.56,1.6-1.08,2.45-1.55,.35-.19,.7-.38,1.06-.55,.21-.1,.41-.19,.62-.29,.89-.43-.43,.19-.52,.21,.87-.2,1.72-.64,2.58-.89,1.08-.31,2.17-.53,3.28-.73,.43-.08,.99,.04-.35,.03,.21,0,.43-.05,.64-.07,.64-.07,1.29-.12,1.93-.15,2.31-.12,4.62-.03,6.92,.2,.51,.05,1.01,.11,1.51,.17,.86,.09-1.19-.18-.33-.05,.29,.04,.57,.08,.86,.13,1.2,.18,2.41,.4,3.6,.62,2.11,.41,4.22,.87,6.31,1.4,4.78,1.2,9.49,2.72,14.08,4.53,.58,.23,1.16,.46,1.74,.7,.21,.09,1.06,.44,.23,.09-.93-.38,.34,.15,.42,.19,1.15,.5,2.28,1.02,3.41,1.56,2.26,1.08,4.48,2.23,6.66,3.45,2.79,1.56,6.8,.77,8.36-2.19,1.52-2.88,.79-6.7-2.19-8.36h0Z"/>
        <path class="cls-1" d="M750.86,1518.6c-8.92-3.49-18.28-5.57-27.81-6.44-8.83-.8-18.27-.5-26.58,2.87-4.4,1.78-8.41,4.12-11.81,7.49-3.24,3.21-5.63,7.03-7.25,11.27-1.62,4.23-1.85,8.83-1.04,13.26,.88,4.84,3.51,9.11,6.52,12.9,6.06,7.63,15.17,13.08,24.61,15.3,3.11,.73,6.77-.97,7.52-4.27,.71-3.13-.94-6.74-4.27-7.52-1.82-.43-3.6-.97-5.34-1.64-.23-.09-.46-.2-.69-.28-.04-.01,1.21,.53,.6,.25-.4-.18-.79-.35-1.19-.54-.9-.43-1.78-.89-2.64-1.38-.76-.43-1.5-.89-2.22-1.37-.36-.24-.72-.49-1.08-.74-.18-.13-1.52-1.13-.73-.52,.81,.63-.36-.3-.54-.46-.38-.32-.76-.64-1.13-.98-.69-.62-1.36-1.27-2.01-1.95-.61-.64-1.2-1.29-1.76-1.97-.16-.2-.32-.4-.48-.6-.42-.51,.38,.49,.37,.48-.26-.49-.69-.95-.99-1.41-.49-.75-.95-1.51-1.36-2.31-.2-.38-.35-.83-.58-1.2,.69,1.09,.34,.86,.18,.41-.09-.24-.18-.47-.26-.71-.31-.9-.55-1.82-.72-2.76-.25-1.36,.06,1.15,0,.08-.02-.45-.06-.9-.07-1.36,0-.79,.08-1.57,.13-2.36-.13,1.97-.05,.47,.06-.04,.09-.44,.2-.88,.32-1.31,.22-.77,.51-1.5,.78-2.25-.63,1.79-.12,.33,.09-.1,.21-.41,.42-.81,.65-1.21,.4-.7,.84-1.38,1.31-2.03,.13-.19,.28-.37,.41-.56,.03-.05-.85,1.04-.42,.56,.35-.39,.67-.8,1.02-1.18,.55-.6,1.13-1.17,1.73-1.72,.3-.27,.61-.54,.92-.79,.13-.11,.28-.21,.41-.33-1.26,1.1-.61,.47-.27,.23,1.51-1.08,3.15-1.99,4.85-2.76,.18-.08,.36-.15,.54-.24-1.34,.67-.73,.3-.37,.17,.43-.15,.85-.32,1.29-.47,.99-.34,1.99-.64,3-.89,.89-.23,1.79-.42,2.69-.59,.45-.08,.91-.15,1.36-.23,.38-.06,1.15-.08-.45,.05,.26-.02,.52-.07,.79-.09,3.97-.45,7.98-.43,11.96-.16,1.14,.08,2.28,.18,3.42,.3,.64,.07,1.28,.15,1.92,.22,.7,.08-.57-.08-.56-.08,.35,.06,.71,.1,1.06,.15,2.33,.35,4.65,.78,6.95,1.3,4.74,1.07,9.39,2.51,13.92,4.28,1.39,.54,3.48,.11,4.71-.62,1.27-.74,2.48-2.2,2.81-3.65,.8-3.51-1.07-6.27-4.27-7.52h0Z"/>
        <path class="cls-1" d="M750.7,1597.89c-10.68-4.24-21.81-8.5-33.49-8.29-9.97,.18-20.68,3.72-27.39,11.39-9.23,10.55-11.15,27.15-2.58,38.71,6.2,8.36,15.46,13.22,25.38,15.84,3.09,.82,6.78-1.03,7.52-4.27,.73-3.2-.96-6.65-4.27-7.52-2.19-.58-4.36-1.26-6.47-2.09-.21-.08-.41-.17-.62-.25-1.12-.44,1.14,.5,.4,.17-.44-.2-.88-.39-1.31-.6-.93-.44-1.84-.91-2.73-1.42-.76-.43-1.5-.89-2.23-1.38-.31-.21-.62-.42-.92-.64-.19-.13-.37-.28-.56-.41-.54-.38,1.33,1.08,.38,.29-1.22-1.01-2.39-2.07-3.45-3.26-.27-.3-.54-.61-.79-.93-.84-1.03,.74,1.02,.22,.29-.45-.63-.9-1.27-1.3-1.93-.35-.58-.68-1.18-.98-1.78-.15-.3-.28-.6-.42-.91-.31-.65,.65,1.64,.32,.75-.08-.2-.16-.41-.24-.61-.46-1.24-.82-2.52-1.06-3.82-.06-.31-.09-.63-.16-.94,.46,2.22,.14,1.09,.08,.48-.06-.66-.1-1.32-.11-1.98,0-.62,0-1.25,.04-1.87,.02-.35,.05-.69,.08-1.03,.01-.14,.03-.27,.05-.41,.08-.97-.28,1.76-.11,.8,.24-1.29,.49-2.56,.87-3.82,.18-.59,.38-1.17,.6-1.75,.11-.29,.59-1.43,.08-.22-.53,1.25,.07-.12,.2-.39,.57-1.19,1.23-2.35,1.97-3.45,.3-.44,1.39-1.63,.13-.23,.33-.37,.63-.76,.96-1.13,.7-.77,1.45-1.49,2.25-2.16,.15-.12,1.03-.79,.15-.14-.89,.66,.02,0,.17-.11,.36-.26,.72-.5,1.09-.74,.93-.6,1.89-1.14,2.88-1.63,.26-.13,1.84-.8,.78-.39-1.06,.41,.56-.21,.82-.31,1.05-.39,2.13-.72,3.21-1,.98-.25,1.98-.47,2.98-.64,.22-.04,.45-.07,.67-.11,1.01-.16-.57,.07-.62,.08,.6-.12,1.25-.14,1.85-.19,2.6-.2,5.21-.11,7.8,.17,.48,.05,1.34-.07-.15-.04,.4-.01,.86,.12,1.26,.19,.7,.11,1.39,.24,2.08,.38,1.46,.29,2.9,.63,4.34,1.02,5.85,1.56,11.49,3.8,17.11,6.03,1.38,.55,3.48,.1,4.71-.62,1.27-.74,2.48-2.2,2.81-3.65,.36-1.57,.28-3.32-.62-4.71-.91-1.42-2.09-2.19-3.65-2.81h0Z"/>
        <g>
          <path class="cls-1" d="M939.52,1455.44c0,1.18-.05,2.35-.14,3.53-.04,.53-.09,1.05-.15,1.58-.02,.2-.1,1.27-.01,.17-.03,.31-.09,.62-.14,.93-.36,2.25-.9,4.46-1.6,6.63-.35,1.07-.74,2.12-1.16,3.16-.37,.93,.28-.55,0,0-.11,.22-.21,.46-.31,.69-.25,.55-.52,1.1-.79,1.64-1,1.97-2.15,3.87-3.43,5.68-.17,.25-.35,.49-.53,.73-.03,.03-.62,.83-.23,.31,.39-.52-.21,.26-.24,.3-.19,.23-.38,.47-.57,.7-.71,.84-1.44,1.66-2.21,2.45-.77,.79-1.56,1.55-2.38,2.29-.37,.33-.75,.66-1.14,.98-.23,.19-.46,.38-.7,.57-.18,.15-.93,.71-.12,.1-1.77,1.32-3.61,2.54-5.55,3.61-.97,.54-1.97,1.04-2.98,1.5-.18,.08-.37,.16-.55,.25-.94,.44,.82-.32-.15,.07-.57,.23-1.14,.45-1.71,.66-2.13,.77-4.32,1.38-6.54,1.82-.51,.1-1.02,.19-1.54,.28-.31,.05-.62,.12-.93,.14,.98-.08,.24-.03-.01,0-1.21,.14-2.43,.23-3.65,.28-2.35,.08-4.69-.05-7.03-.29-1.03-.11,.64,.1-.01,0-.26-.04-.52-.08-.78-.12-.51-.08-1.03-.18-1.54-.28-1.22-.24-2.42-.53-3.62-.87-.98-.28-1.96-.6-2.92-.95-.57-.21-1.14-.43-1.71-.66-.19-.08-.7-.33,.13,.06-.37-.17-.74-.33-1.11-.5-2.01-.94-3.95-2.02-5.8-3.24-.84-.55-1.65-1.14-2.45-1.74,.87,.65-.49-.4-.7-.58-.5-.42-.99-.84-1.47-1.28-1.63-1.48-3.16-3.07-4.56-4.77-.19-.23-1.12-1.44-.48-.59-.3-.4-.6-.8-.89-1.21-.67-.94-1.3-1.91-1.89-2.9-.54-.91-1.06-1.83-1.54-2.78-.23-.45-.45-.91-.66-1.36-.13-.28-.25-.55-.38-.83-.35-.76,.27,.71-.12-.29-.83-2.1-1.53-4.24-2.06-6.44-.25-1.06-.47-2.13-.64-3.21-.05-.31-.12-.62-.14-.93,0,.13,.11,.91,.02,.15-.07-.63-.14-1.26-.19-1.89-.18-2.35-.18-4.71,0-7.05,.05-.63,.12-1.26,.19-1.89,.02-.21,.05-.8-.02,.15,.02-.31,.09-.62,.14-.93,.18-1.13,.41-2.25,.68-3.36,.53-2.2,1.25-4.33,2.08-6.43,.38-.97-.37,.8,.07-.15,.11-.23,.21-.46,.31-.69,.23-.51,.48-1.01,.73-1.5,.5-.99,1.04-1.96,1.61-2.91,.57-.95,1.18-1.87,1.82-2.77,.29-.41,.59-.81,.89-1.21-.63,.84-.01,.02,.1-.12,.19-.23,.38-.47,.57-.7,1.41-1.69,2.95-3.27,4.59-4.74,.37-.33,.75-.66,1.14-.98,.23-.19,.46-.38,.7-.57,.15-.12,.97-.73,.12-.1,.88-.66,1.78-1.3,2.71-1.9,1.86-1.21,3.81-2.28,5.82-3.2,.28-.13,.56-.25,.83-.37-.11,.05-.82,.33-.13,.06,.52-.21,1.04-.41,1.57-.61,1.11-.4,2.23-.77,3.36-1.08,1.05-.29,2.1-.54,3.17-.76,.56-.11,1.13-.22,1.69-.31,.21-.03,.41-.06,.62-.1,.46-.07,.42-.06-.15,.02,.21-.03,.42-.05,.63-.08,2.34-.26,4.69-.34,7.04-.25,1.06,.04,2.12,.13,3.17,.25,.2,.02,1.27,.1,.17,.01,.31,.02,.62,.09,.93,.14,.62,.1,1.23,.21,1.84,.34,2.22,.46,4.4,1.08,6.52,1.86,.48,.18,.95,.37,1.42,.55,.97,.38-.8-.37,.15,.07,.18,.08,.37,.16,.55,.25,1.1,.5,2.18,1.05,3.24,1.64,.88,.49,1.74,1.01,2.58,1.56,.46,.3,.92,.61,1.37,.93,.2,.14,.41,.29,.61,.44,.17,.12,1.24,.95,.37,.27,1.73,1.36,3.37,2.83,4.89,4.43,.69,.72,1.36,1.47,2,2.24,.32,.38,.63,.77,.94,1.17-.65-.83-.02-.02,.09,.13,.24,.32,.47,.65,.7,.98,1.24,1.77,2.35,3.64,3.32,5.57,.25,.5,.49,1,.72,1.5,.08,.18,.16,.37,.25,.55,.44,.94-.32-.82,.07,.15,.43,1.09,.84,2.19,1.2,3.31,.68,2.12,1.2,4.29,1.55,6.48,.05,.31,.12,.62,.14,.93-.09-1.1,0-.03,.01,.17,.06,.53,.11,1.05,.15,1.58,.09,1.17,.13,2.35,.14,3.53,0,2.13,1.87,4.17,4.08,4.08,2.2-.1,4.08-1.79,4.08-4.08-.04-10.08-3.12-20.17-9.02-28.37-5.89-8.2-13.98-14.4-23.46-17.91-19.06-7.05-41.54-.97-54.46,14.7-6.6,8.01-10.55,17.7-11.35,28.05-.77,10.01,1.7,20.29,6.89,28.89,5.06,8.38,12.7,15.34,21.65,19.36,9.58,4.3,20.13,5.53,30.45,3.49,19.58-3.88,35.55-20.4,38.62-40.14,.42-2.67,.67-5.36,.68-8.06,0-2.13-1.88-4.17-4.08-4.08-2.21,.1-4.07,1.79-4.08,4.08Z"/>
          <path class="cls-1" d="M958.79,1560.93c0,.36-.01,.73-.04,1.09-.01,.18-.04,.36-.05,.54-.05,.72,.22-1.28,.05-.38-.14,.72-.29,1.42-.52,2.11-.11,.33-.26,.66-.37,.99,.09-.28,.49-1.09,.17-.43-.1,.2-.19,.39-.29,.59-.34,.66-.73,1.3-1.16,1.92-.09,.14-.19,.27-.29,.4-.49,.69,.67-.81,.22-.28-.26,.31-.51,.62-.78,.92-.54,.6-1.12,1.18-1.72,1.72-.3,.27-.61,.54-.93,.8-.16,.13-.33,.26-.49,.39-.34,.28,.93-.69,.15-.12-.71,.52-1.43,1.02-2.17,1.48-1.64,1.04-3.36,1.95-5.12,2.77-.45,.21-.91,.41-1.37,.62-.85,.38,.78-.32,.19-.08-.29,.12-.58,.24-.87,.36-1.01,.4-2.03,.78-3.06,1.14-4.45,1.54-9.03,2.69-13.65,3.58-1.24,.24-2.49,.46-3.74,.66-.62,.1-1.24,.2-1.86,.29-.28,.04-.55,.08-.83,.12-.14,.02-.28,.04-.42,.06-.72,.1-.14,0,.25-.03-2.64,.28-5.26,.63-7.9,.84-5.38,.43-10.78,.61-16.17,.53-5.36-.07-10.71-.39-16.03-.98-.64-.07-1.27-.15-1.91-.22-.28-.03-.56-.07-.84-.11-1.06-.14,.97,.14-.28-.04-1.28-.18-2.55-.37-3.82-.59-2.42-.41-4.84-.88-7.23-1.44-4.41-1.02-8.77-2.31-12.96-4.03-.13-.05-.26-.11-.39-.16-.44-.18,.93,.4,.5,.21-.23-.1-.46-.2-.69-.3-.48-.21-.95-.43-1.43-.66-.89-.43-1.77-.87-2.63-1.35-.8-.44-1.58-.91-2.35-1.41-.37-.24-.73-.49-1.09-.74-.38-.27-1.68-1.35-.44-.3-1.25-1.06-2.47-2.09-3.55-3.34-.12-.14-.24-.29-.37-.44-.45-.54,.06,.03,.25,.33-.22-.35-.49-.66-.71-1.01-.4-.6-.75-1.23-1.07-1.88-.08-.18-.15-.37-.25-.54-.05-.08,.44,1.14,.27,.65-.03-.07-.06-.15-.09-.22-.13-.37-.27-.74-.38-1.11-.09-.32-.18-.64-.25-.97-.11-.49-.17-1.88-.07-.14-.17-2.89-.07-5.77,.25-8.66,.04-.39,.07-.8,.14-1.19-.22,1.2,.07-.43,.11-.66,.14-.85,.3-1.7,.48-2.54,.36-1.67,.8-3.32,1.34-4.95,.25-.76,.52-1.52,.82-2.27,.06-.16,.13-.33,.2-.49,.3-.75,.09,.11-.06,.12,.11,0,.46-1.03,.54-1.19,.65-1.4,1.38-2.76,2.19-4.08,.4-.65,.81-1.28,1.24-1.91,.21-.31,.43-.62,.66-.92,.12-.17,.25-.34,.37-.5,.47-.63-.56,.68-.02,.03,.95-1.16,1.93-2.29,2.99-3.36,1.09-1.1,2.24-2.13,3.44-3.11,.16-.13,.33-.26,.49-.39,.31-.25,.36-.05-.23,.17,.28-.11,.57-.43,.81-.61,.69-.5,1.39-.98,2.1-1.44,1.3-.85,2.64-1.63,4.02-2.35,.7-.37,1.41-.72,2.12-1.06,.36-.17,.72-.34,1.09-.5,.2-.09,.41-.18,.61-.27,.08-.04,.16-.07,.25-.11,.41-.17,.33-.14-.23,.1,.38-.42,1.62-.65,2.14-.84,.82-.3,1.64-.59,2.47-.86,1.65-.54,3.32-1.02,5-1.44,1.73-.44,3.48-.81,5.24-1.14,.88-.16,1.75-.31,2.63-.44,.4-.06,.79-.12,1.19-.17,.75-.11-.07,0-.19,.02,.3-.05,.6-.08,.9-.11,3.83-.47,7.68-.71,11.53-.78,3.95-.07,7.9,.04,11.84,.35,1.85,.15,3.73,.29,5.57,.58-1.17-.19,.36,.06,.59,.09,.45,.07,.9,.14,1.36,.21,.94,.15,1.89,.32,2.82,.5,3.5,.68,6.95,1.56,10.33,2.69,.81,.27,1.61,.55,2.41,.85,.39,.15,.79,.3,1.18,.45,.22,.09,.43,.17,.65,.26,.25,.1,1.08,.33,.05,.02,1.53,.46,3.05,1.37,4.46,2.11,1.46,.77,2.89,1.6,4.28,2.5,.63,.41,1.25,.83,1.86,1.26,.36,.25,.71,.52,1.06,.77,.5,.37-.19-.17-.2-.16,.02-.01,.58,.46,.61,.49,2.48,2,4.76,4.25,6.75,6.74,.06,.07,.27,.39,.32,.4-.05-.01-.6-.8-.17-.21,.23,.31,.46,.62,.68,.94,.47,.67,.93,1.35,1.36,2.05,.86,1.38,1.63,2.8,2.32,4.27,.17,.36,.33,.73,.49,1.09,.22,.49,.14-.06-.1-.23,.06,.04,.16,.4,.2,.5,.34,.85,.65,1.7,.93,2.57,.53,1.61,.96,3.24,1.3,4.9,.18,.86,.34,1.72,.47,2.58,.03,.17,.09,.41,.09,.59,0-.98-.04-.34,0-.05,.05,.45,.1,.9,.15,1.35,.18,1.88,.26,3.76,.27,5.65,0,2.13,1.87,4.17,4.08,4.08,2.2-.1,4.08-1.79,4.08-4.08-.02-7.93-1.5-15.75-4.85-22.95-2.87-6.18-7.3-11.7-12.6-15.96-12.02-9.67-27.32-13.74-42.47-14.98-15.34-1.26-31.67-.03-45.97,6-6.37,2.69-12.33,6.36-17.24,11.27-4.98,4.99-8.64,11.09-10.93,17.74-1.24,3.61-1.96,7.34-2.43,11.13-.38,3.04-.7,6.25-.38,9.31,.43,4.08,2.05,7.62,4.61,10.79,5.25,6.49,13.71,10.13,21.44,12.62,10.12,3.26,20.84,4.76,31.43,5.43,11.33,.72,22.7,.3,33.95-1.23,9.78-1.33,19.57-3.57,28.52-7.84,6.92-3.29,13.76-8.43,16.14-16.04,.53-1.7,.78-3.53,.78-5.3,0-2.13-1.88-4.17-4.08-4.08-2.22,.1-4.07,1.79-4.08,4.08Z"/>
        </g>
      </g>
      <g>
        <path class="cls-1" d="M989.86,416.29c9.57-.27,18.89-5.12,26.96-9.85,12.35-7.24,23.73-16.25,34.4-25.75,13.05-11.62,25.1-24.37,36.15-37.91,12.53-15.35,23.89-31.68,33.51-49.02,9.97-17.96,18.19-37.05,23.7-56.85,5.99-21.53,8.77-44.04,6.62-66.34-2.24-23.2-9.02-45.61-19.41-66.46-9.69-19.44-22.56-37.41-37.65-53.03-15.19-15.72-32.83-28.92-52.97-37.59C1019.93,4.35,996.92-.43,973.76,.03c-21.83,.43-43.05,5.69-62.94,14.56-17.07,7.62-32.8,18.19-46.52,30.88-13.4,12.39-24.9,26.99-33.99,42.81-9.09,15.83-15.92,33.09-20.08,50.87-4.14,17.73-5.79,36.15-4.54,54.33,1.27,18.48,5.31,36.73,12.32,53.89,8.38,20.48,19.13,39.87,31.68,58.1,12.24,17.78,26.01,34.56,41.08,50.01,13.42,13.75,27.93,26.52,43.63,37.61,12.05,8.51,25.18,16.35,39.37,20.67,5.16,1.57,10.66,2.64,16.07,2.53,3.44-.06,6.75-2.98,6.58-6.58-.16-3.51-2.89-6.65-6.58-6.58-1.13,.02-2.26-.01-3.39-.1-.59-.05-1.18-.13-1.78-.18-.42-.04,1.83,.28,.63,.08-.33-.06-.66-.1-.99-.16-2.65-.46-5.26-1.13-7.82-1.95-1.41-.45-2.8-.93-4.18-1.46-.72-.27-1.44-.56-2.15-.85-.24-.1-1.43-.59-.39-.16,1.1,.46-.51-.23-.74-.33-3.11-1.37-6.15-2.89-9.14-4.51-6.8-3.68-13.32-7.88-19.62-12.36-1.72-1.22-3.42-2.47-5.11-3.74-.86-.65-1.72-1.3-2.58-1.96,.91,.7,.2,.15-.26-.21-.47-.37-.93-.73-1.4-1.1-3.55-2.82-7.03-5.72-10.45-8.69-15.06-13.1-28.94-27.57-41.61-42.99-1.66-2.02-3.3-4.06-4.92-6.11-.37-.48-.75-.95-1.12-1.43-.19-.24-.37-.48-.56-.72-.64-.83,.55,.72-.08-.11-.8-1.05-1.6-2.09-2.39-3.15-3.18-4.23-6.27-8.53-9.26-12.9-6.06-8.85-11.71-17.97-16.87-27.37-2.54-4.62-4.96-9.32-7.25-14.07-1.13-2.36-2.24-4.74-3.3-7.13-.49-1.1-.97-2.2-1.45-3.31-.12-.28-.24-.55-.35-.83,.46,1.08,.05,.11-.03-.09-.27-.65-.53-1.29-.8-1.94-3.34-8.23-6.02-16.72-8-25.37-.98-4.28-1.79-8.59-2.43-12.93-.09-.58-.17-1.17-.25-1.75,.17,1.16,.06,.42-.03-.25-.15-1.17-.28-2.34-.4-3.51-.23-2.17-.41-4.35-.55-6.52-.57-8.69-.48-17.42,.24-26.1,.18-2.17,.4-4.33,.66-6.49,.06-.5,.12-1,.19-1.49,.16-1.31-.16,1.07,.03-.24,.17-1.16,.34-2.32,.52-3.47,.69-4.29,1.53-8.56,2.52-12.79,2.01-8.54,4.63-16.94,7.85-25.1,.37-.93,.75-1.86,1.13-2.79,.09-.23,.19-.46,.29-.69-.02,.04-.48,1.11-.18,.42,.27-.61,.53-1.23,.8-1.84,.87-1.99,1.78-3.97,2.73-5.92,1.89-3.92,3.92-7.77,6.09-11.54,2.17-3.78,4.47-7.47,6.91-11.08,1.22-1.81,2.47-3.59,3.76-5.35,.64-.88,1.29-1.76,1.95-2.62,.35-.47,.9-1.16,.2-.26,.36-.46,.72-.93,1.09-1.39,5.5-6.93,11.52-13.44,18.01-19.44,3.24-2.99,6.59-5.86,10.05-8.59,.44-.35,1.19-.92,.28-.23,.41-.31,.81-.62,1.22-.93,.95-.72,1.91-1.43,2.88-2.13,1.8-1.3,3.64-2.57,5.49-3.8,7.52-4.98,15.45-9.35,23.69-13.04,.48-.22,.96-.43,1.45-.64,.31-.14,1.83-.78,1.16-.5-.72,.3,.7-.29,.93-.38,.57-.23,1.15-.47,1.73-.69,2.15-.85,4.33-1.66,6.52-2.42,4.55-1.58,9.16-2.98,13.83-4.15,2.75-.69,5.52-1.3,8.3-1.82,1.24-.23,2.48-.45,3.72-.65,.62-.1,1.24-.2,1.86-.29,.31-.05,.62-.09,.93-.14,1.99-.29-.72,.07,.43-.06,5.43-.6,10.84-1.06,16.31-1.15,5.45-.09,10.91,.12,16.34,.62,1.25,.11,2.51,.24,3.76,.39,.73,.08,1.46,.17,2.19,.27-1.17-.15,.7,.1,1.06,.16,2.7,.4,5.39,.88,8.06,1.42,5.35,1.09,10.64,2.46,15.84,4.1,2.6,.82,5.18,1.71,7.74,2.67,1.28,.48,2.55,.98,3.81,1.49,.29,.12,1.7,.71,.75,.3,.68,.29,1.35,.58,2.02,.88,10.07,4.46,19.65,10.01,28.48,16.59,.5,.38,1.01,.76,1.51,1.14-.79-.61,.42,.34,.65,.52,1.11,.88,2.2,1.78,3.28,2.69,1.83,1.54,3.63,3.12,5.4,4.72,3.64,3.3,7.15,6.73,10.53,10.29,3.48,3.66,6.83,7.44,10.05,11.34,.82,.99,1.62,1.99,2.42,2.99,.37,.47,.74,.93,1.1,1.4,.46,.59-.05-.06-.12-.16,.24,.32,.48,.63,.72,.95,1.57,2.07,3.11,4.17,4.6,6.3,6.16,8.76,11.65,18,16.37,27.61,1.19,2.42,2.33,4.86,3.41,7.33,.25,.57,.5,1.14,.75,1.72,.3,.7,0-.02-.05-.14,.12,.29,.24,.58,.36,.87,.56,1.35,1.1,2.71,1.63,4.07,1.97,5.09,3.72,10.27,5.23,15.52,1.53,5.3,2.81,10.68,3.83,16.1,.26,1.37,.5,2.73,.72,4.11,.1,.63,.2,1.27,.3,1.91,.05,.32,.1,.64,.14,.96,.02,.12,.2,1.38,.11,.72-.1-.7,.05,.36,.05,.4,.05,.43,.11,.85,.16,1.28,.08,.64,.15,1.29,.22,1.93,.15,1.4,.28,2.8,.4,4.2,.48,5.78,.65,11.58,.5,17.38-.07,2.89-.22,5.78-.45,8.66-.11,1.34-.23,2.68-.37,4.02-.07,.67-.14,1.35-.22,2.02-.04,.38-.36,2.78-.18,1.51-1.34,9.77-3.44,19.43-6.17,28.91-1.36,4.73-2.88,9.42-4.55,14.05-.83,2.32-1.7,4.62-2.6,6.91-.45,1.14-.91,2.28-1.37,3.42-.22,.52-.44,1.05-.65,1.57-.29,.7,.08-.18,.11-.27-.15,.35-.3,.7-.45,1.04-7.7,17.92-17.39,34.97-28.47,51.01-2.68,3.88-5.44,7.7-8.28,11.46-.7,.93-1.41,1.85-2.12,2.78,.7-.91,.03-.04-.28,.36-.38,.49-.77,.98-1.15,1.47-1.42,1.8-2.86,3.59-4.32,5.36-5.67,6.9-11.61,13.58-17.81,20.02-5.67,5.89-11.56,11.58-17.67,17.02-2.82,2.51-5.69,4.97-8.62,7.36-1.39,1.14-2.8,2.26-4.21,3.37-.32,.25-.65,.48-.96,.75,.91-.79,.53-.41-.1,.07-.68,.52-1.37,1.03-2.05,1.55-5.03,3.74-10.21,7.28-15.62,10.45-2.27,1.33-4.59,2.6-6.95,3.76-1.07,.53-2.15,1.03-3.24,1.51-.24,.11-.48,.2-.72,.31-.4,.18,1.69-.68,.62-.27-.54,.21-1.08,.43-1.62,.64-1.74,.65-3.52,1.23-5.34,1.66-.79,.18-1.61,.26-2.39,.46,.13-.03,2.05-.22,1.03-.14-.18,.01-.35,.04-.53,.05-.39,.03-.79,.06-1.18,.07-3.44,.1-6.75,2.96-6.58,6.58,.16,3.49,2.9,6.69,6.58,6.58Z"/>
        <path class="cls-1" d="M1035.15,190.36c0,1.39-.05,2.77-.16,4.16-.05,.68-.12,1.37-.19,2.05-.06,.49-.29,1.76,.06-.4-.07,.45-.13,.9-.2,1.34-.45,2.75-1.12,5.47-1.99,8.12-.38,1.15-.81,2.28-1.25,3.41-.47,1.19,.67-1.53,.16-.36-.13,.3-.26,.6-.4,.9-.32,.7-.65,1.38-.99,2.07-1.23,2.42-2.64,4.75-4.22,6.96-.32,.45-1.8,2.3-.33,.49-.41,.5-.81,1.02-1.22,1.51-.83,.99-1.7,1.96-2.6,2.89-.9,.93-1.83,1.83-2.8,2.7-.48,.43-.97,.86-1.47,1.27-.46,.39-2.62,1.93-.7,.59-2.23,1.56-4.42,3.11-6.82,4.42-1.05,.58-2.12,1.12-3.21,1.62-.52,.24-2.74,1.07-.53,.26-.72,.26-1.43,.57-2.15,.83-2.61,.95-5.3,1.69-8.02,2.23-.66,.13-1.33,.25-2,.35-.34,.05-.67,.09-1.01,.15,2.16-.36,.89-.12,.4-.06-1.37,.15-2.74,.26-4.11,.31-2.89,.11-5.76-.04-8.63-.35-1.32-.14,1.71,.26,.4,.06-.33-.05-.67-.1-1-.16-.67-.11-1.33-.23-1.99-.37-1.37-.28-2.72-.61-4.06-.99-1.22-.35-2.43-.74-3.63-1.17-.62-.23-1.23-.47-1.85-.71-1.19-.47,1.53,.67,.36,.15-.4-.18-.8-.35-1.2-.54-2.47-1.14-4.85-2.47-7.12-3.97-1-.66-1.94-1.39-2.91-2.07,1.9,1.32,0-.02-.45-.38-.58-.48-1.16-.98-1.72-1.48-2.01-1.8-3.88-3.76-5.6-5.84-.36-.44-1.71-2.35-.38-.45-.37-.53-.78-1.04-1.15-1.57-.75-1.06-1.46-2.15-2.13-3.27-.67-1.12-1.31-2.26-1.9-3.43-.3-.58-.58-1.17-.86-1.77-.14-.3-.27-.6-.41-.9-.7-1.58,.44,1.12,.02,.06-1.01-2.58-1.88-5.2-2.51-7.9-.28-1.2-.52-2.41-.73-3.63-.06-.33-.1-.67-.16-1-.2-1.31,.2,1.72,.06,.4-.09-.79-.17-1.59-.23-2.39-.22-2.88-.21-5.78,.03-8.65,.06-.68,.13-1.36,.21-2.04,.14-1.32-.26,1.71-.06,.4,.05-.34,.1-.67,.16-1,.22-1.33,.49-2.65,.8-3.96,.66-2.71,1.61-5.27,2.56-7.88-.81,2.21,.02-.01,.26-.53,.28-.59,.56-1.18,.86-1.77,.64-1.26,1.33-2.5,2.07-3.7,.62-1.02,1.28-2.02,1.96-2.99,.37-.53,.78-1.04,1.15-1.57-1.34,1.93,.2-.23,.59-.7,1.73-2.07,3.62-4.01,5.64-5.81,.48-.43,.98-.85,1.48-1.27,.25-.21,1.86-1.47,.86-.7-1,.78,.63-.45,.9-.64,.62-.44,1.24-.87,1.88-1.28,2.28-1.49,4.67-2.8,7.15-3.93,.3-.14,.6-.27,.9-.4,1.17-.52-1.55,.62-.36,.15,.61-.24,1.23-.48,1.85-.71,1.25-.45,2.51-.86,3.79-1.22,1.29-.36,2.59-.68,3.9-.94,.66-.13,1.33-.26,1.99-.37,.33-.05,.67-.1,1-.16,1.17-.18-1.84,.22-.06,.02,2.86-.33,5.76-.42,8.64-.3,1.26,.06,2.52,.15,3.77,.3,.49,.06,1.76,.29-.4-.06,.33,.06,.67,.1,1.01,.15,.78,.12,1.55,.26,2.33,.42,2.72,.55,5.4,1.31,8,2.28,.62,.23,1.22,.49,1.84,.72-2.21-.81,.01,.02,.53,.26,1.19,.55,2.36,1.14,3.5,1.78,1.14,.63,2.26,1.3,3.35,2.02,.54,.36,1.08,.72,1.61,1.09,.48,.34,2.59,2.01,.75,.52,2.1,1.71,4.13,3.46,6,5.43,.82,.86,1.61,1.75,2.37,2.66,.42,.5,.81,1.01,1.22,1.51-1.49-1.83,.18,.27,.52,.75,1.56,2.22,2.96,4.56,4.18,6.99,.29,.59,.58,1.18,.85,1.77,.14,.3,.27,.6,.4,.9,.52,1.17-.62-1.55-.16-.36,.48,1.23,.95,2.47,1.35,3.73,.86,2.66,1.5,5.38,1.94,8.14,.05,.33,.09,.67,.15,1.01-.36-2.16-.12-.89-.06-.4,.08,.68,.14,1.36,.19,2.05,.1,1.38,.15,2.77,.16,4.16,.01,3.44,3.02,6.74,6.58,6.58,3.56-.16,6.6-2.89,6.58-6.58-.04-12.35-3.79-24.8-10.98-34.89-7.38-10.35-17.47-18.11-29.39-22.52-11.76-4.35-25.13-4.73-37.18-1.33-11.66,3.29-22.49,10.18-30.19,19.56-8.21,9.99-13.09,21.95-14.11,34.85-.97,12.39,2.14,25.19,8.58,35.82,6.22,10.27,15.58,18.86,26.55,23.81,12.03,5.44,25.22,7,38.18,4.41,11.88-2.37,23.08-8.66,31.46-17.39,8.45-8.8,14.39-20.26,16.22-32.35,.5-3.31,.84-6.62,.85-9.98,.01-3.44-3.04-6.74-6.58-6.58-3.58,.16-6.57,2.89-6.58,6.58Z"/>
      </g>
      <g>
        <g>
          <path class="cls-1" d="M1530.17,544.15c5.12-25.87,10.8-51.61,16.51-77.35,2.39-10.78,4.32-21.6,6.35-32.45,.95-5.07,2.02-10.12,3.45-15.08,.67-2.35,1.43-4.68,2.29-6.97,.19-.5,.38-.99,.57-1.48,.03-.06,.85-1.98,.32-.78,.6-1.36,1.23-2.71,1.92-4.03,1.09-2.09,2.29-4.13,3.61-6.08,1.48-2.19,2.47-3.46,4.68-5.79,1.32-1.39,2.72-2.69,4.19-3.92,.4-.34,.81-.66,1.22-.99-1.25,.99,.15-.09,.35-.24,1-.73,2.03-1.42,3.08-2.08,1.67-1.05,3.39-2.03,5.15-2.93,.97-.5,1.96-.97,2.95-1.43,.5-.23,1.01-.45,1.51-.67-1.45,.63,.74-.29,1-.39,4.24-1.66,8.6-2.99,13.02-4.06,4.54-1.1,9.13-1.94,13.76-2.58-1.56,.22,.38-.04,.58-.07,.39-.05,.78-.09,1.16-.14,1.16-.14,2.33-.26,3.49-.37,2.51-.24,5.02-.43,7.54-.58,8.55-.49,17.14-.46,25.69-.04,21.37,1.05,42.82,2.38,64.08,4.78,2.76,.31,5.51,.64,8.26,.99,1.19,.15,2.38,.31,3.56,.46-1.13-.15,1.27,.17,1.16,.16,.99,.14,1.98,.28,2.97,.42,5.57,.79,11.12,1.73,16.69,2.49,5.15,.7,10.3,1.32,15.45,2,.16,.02,2.16,.29,.67,.09,.61,.08,1.21,.17,1.82,.25,1.21,.17,2.43,.35,3.64,.53,2.42,.37,4.84,.77,7.25,1.23,4.76,.9,9.5,2.01,14.12,3.48,2.09,.67,4.14,1.42,6.17,2.23-1.34-.54,.47,.21,.61,.27,.54,.24,1.08,.49,1.61,.75,1.24,.6,2.47,1.23,3.67,1.91,1.89,1.07,3.72,2.23,5.47,3.51,.11,.08,1.64,1.29,.56,.41,.47,.38,.93,.75,1.38,1.14,1.07,.92,2.11,1.88,3.1,2.89,.87,.88,1.71,1.79,2.51,2.73,.27,.31,.53,.63,.8,.95,.06,.07,1.3,1.67,.5,.6,1.6,2.11,3.05,4.34,4.36,6.64,1.11,1.95,2.08,3.96,3.02,6,.85,1.82-.45-1.18,.29,.68,.23,.57,.45,1.14,.67,1.71,.51,1.34,.98,2.7,1.42,4.07,1.52,4.74,2.63,9.61,3.44,14.53,.17,1.03,.33,2.07,.47,3.1-.2-1.44,.07,.62,.09,.74,.08,.62,.15,1.25,.21,1.87,.29,2.71,.5,5.42,.66,8.13,.27,4.84,.35,9.69,.31,14.53-.21,24.97-2.33,49.98-5.08,74.78-2.84,25.58-6.61,50.72-10.92,76.33-3.05,18.11-6.23,36.22-10.39,54.12-2.03,8.73-4.3,17.41-6.95,25.97-1.29,4.16-2.66,8.3-4.15,12.39-.67,1.84-1.36,3.67-2.08,5.49-.39,.98-.78,1.96-1.18,2.94-.1,.24-.79,1.88-.14,.36-.24,.56-.48,1.12-.72,1.67-3.16,7.25-6.78,14.31-11.1,20.95-1.03,1.59-2.11,3.15-3.23,4.69-.28,.39-2.08,2.72-.94,1.27-.57,.72-1.15,1.44-1.74,2.15-2.3,2.77-4.78,5.4-7.44,7.83-1.3,1.19-2.65,2.31-4.03,3.42,1.52-1.22-.56,.4-.94,.67-.77,.55-1.54,1.08-2.33,1.59-1.46,.95-2.95,1.83-4.48,2.65-.64,.34-1.28,.67-1.94,.99-.39,.19-.79,.38-1.18,.56-.26,.12-.53,.24-.8,.36-.66,.28-.53,.23,.37-.15-.51,.48-1.79,.71-2.46,.95-.83,.3-1.67,.58-2.52,.84-1.72,.53-3.46,.98-5.22,1.36-.9,.19-1.8,.36-2.7,.51-.43,.07-.94,.22-1.38,.21,1.75,.05,.36-.05-.11,0-1.98,.22-3.97,.33-5.96,.4-20.97,.71-42-.59-62.85-2.76-5.56-.58-11.12-1.23-16.67-1.95-.69-.09-1.39-.18-2.08-.27,.95,.13-.21-.03-.33-.04-1.39-.19-2.77-.38-4.16-.58-2.99-.43-5.98-.87-8.96-1.34-10.73-1.67-21.42-3.59-32.05-5.79-18.39-3.8-36.94-8.11-54.4-15.14-.56-.22-1.11-.45-1.66-.68-1.83-.75,1.18,.53-.64-.27-1.1-.49-2.2-.97-3.29-1.47-2.17-1.01-4.32-2.07-6.44-3.21-4.16-2.23-8.13-4.74-11.93-7.53-1.54-1.12,.98,.83-.49-.38-.44-.36-.89-.72-1.33-1.09-.87-.73-1.72-1.48-2.55-2.25-1.63-1.52-3.18-3.13-4.62-4.83-.36-.42-.7-.85-1.05-1.28,.95,1.19-.17-.25-.29-.42-.64-.89-1.25-1.79-1.82-2.72-.55-.9-1.07-1.81-1.57-2.75-.3-.57-.59-1.15-.87-1.74-.19-.39-.36-.78-.54-1.17,.24,.59,.21,.52-.08-.21-.89-2.29-1.65-4.63-2.24-7.02-.28-1.14-.53-2.29-.74-3.45-.12-.63-.22-1.27-.32-1.91-.12-.79-.13-.85-.04-.17-.05-.43-.1-.86-.15-1.29-.57-5.24-.58-10.54-.29-15.8,.61-11.06,2.21-19.53,3.8-30.61,1.75-12.19,2.8-24.48,4.42-36.69,1.58-12,3.64-25.18,5.76-37.57,2.1-12.27,4.39-24.51,6.8-36.72,.67-3.37-.96-7.27-4.6-8.1-3.27-.74-7.39,.99-8.1,4.6-5.25,26.6-9.88,53.31-13.35,80.2-.83,6.44-1.6,12.89-2.28,19.35-.29,2.72-.56,5.43-.9,8.14-.02,.12-.29,2.18-.1,.75-.09,.63-.17,1.26-.26,1.9-.21,1.5-.43,2.99-.66,4.48-1.66,11.14-3.53,22.31-3.85,33.59-.32,11.35,1.14,22.73,5.81,33.15,4.19,9.38,11.27,16.87,19.38,23.01,15.39,11.66,34.47,18.17,52.93,23.13,20.53,5.52,41.46,9.61,62.46,12.84,22.62,3.48,45.42,6.01,68.28,6.99,10.17,.43,20.39,.62,30.56,.15,8.39-.39,16.44-2.2,24.14-5.51,14.32-6.14,25.53-17.62,34.03-30.44,9.53-14.38,15.96-30.81,21.06-47.21,5.46-17.55,9.35-35.55,12.74-53.6,9.23-49.19,16.68-98.99,19.88-148.96,2.57-40.12,6.4-95.79-34.95-118.58-8.93-4.92-18.84-7.8-28.81-9.68-5.19-.98-10.43-1.71-15.66-2.4-2.41-.32-4.82-.62-7.22-.92-1.19-.15-2.38-.3-3.57-.45-.59-.08-1.18-.15-1.77-.23-.39-.05-.78-.1-1.17-.16q.78,.1,0,0c-11.85-1.68-23.66-3.57-35.56-4.91-10.64-1.2-21.31-2.08-31.99-2.81-19.97-1.35-40.08-3.17-60.09-1.79-18.97,1.31-39.21,4.84-55.39,15.45-8.7,5.71-15.78,13.48-20.66,22.67-5.1,9.6-7.88,20.15-9.92,30.77-2.11,10.99-3.99,21.99-6.42,32.92-2.91,13.14-5.82,26.28-8.65,39.43-2.77,12.89-5.47,25.79-8.03,38.72-.67,3.37,.96,7.27,4.6,8.1,3.27,.74,7.38-.99,8.1-4.6Z"/>
          <path class="cls-1" d="M1710.61,728.53c-3.78,.58-8.5,1.01-12.86,1.22-4.72,.23-9.45,.24-14.17,.1-4.82-.14-9.64-.45-14.44-.87-4.51-.4-9.6-.98-13.7-1.55-16.51-2.28-32.83-5.72-49.02-9.66-3.87-.94-7.72-1.97-11.51-3.2-1.81-.59-3.61-1.21-5.39-1.89-.82-.31-1.64-.63-2.45-.97-.24-.1-1.1-.47-.42-.17-.48-.21-.95-.41-1.43-.63-3.02-1.35-5.96-2.88-8.78-4.61-1.31-.81-2.59-1.66-3.84-2.55-.27-.19-.54-.39-.81-.59-.81-.6,.31,.27-.29-.22-.59-.48-1.18-.95-1.76-1.44-2.14-1.83-4.14-3.84-5.94-6-.2-.23-.39-.47-.58-.71-.1-.12-.19-.24-.29-.36-.39-.46,.47,.65,.13,.16-.41-.58-.84-1.14-1.25-1.72-.78-1.12-1.5-2.28-2.18-3.46-.68-1.19-1.31-2.41-1.9-3.65-.13-.28-.26-.56-.38-.84-.11-.25-.55-1.31-.11-.22-.27-.67-.55-1.34-.8-2.02-1.01-2.7-1.81-5.47-2.45-8.28-.32-1.41-.6-2.84-.84-4.27-.13-.79-.25-1.58-.37-2.37-.13-.87,.08,.67-.03-.21-.05-.47-.11-.93-.16-1.4-.36-3.29-.57-6.6-.65-9.91-.19-7.38,.17-14.77,.77-22.12,1.83-22.37,4.68-44.7,8.07-66.88,3.38-22.06,7.88-43.92,11.34-65.97,3.28-20.88,6.4-41.99,13.46-62,1.6-4.53,3.1-8.46,5.38-12.63,.93-1.71,1.95-3.37,3.08-4.95,.23-.33,.47-.65,.72-.98-.48,.64,.28-.34,.41-.5,.56-.68,1.15-1.34,1.76-1.97,.54-.57,1.1-1.11,1.69-1.64,.26-.24,.53-.47,.8-.7,.26-.22,1.21-.94,.46-.39,1.22-.9,2.48-1.72,3.81-2.44,.63-.34,1.27-.64,1.91-.95,.76-.37-.63,.23,.15-.07,.41-.16,.81-.32,1.22-.47,1.4-.5,2.83-.91,4.27-1.24,.71-.16,1.42-.3,2.13-.43,.33-.06,.67-.11,1-.17,.22-.03,.45-.06,.67-.1-.33,.05-.69,.08-.15,.02,1.57-.17,3.14-.31,4.72-.39,3.36-.16,6.72-.12,10.07-.01,6.86,.22,13.71,.51,20.57,.76,13.43,.49,26.84,1.7,40.19,3.23,3.9,.45,7.8,.93,11.69,1.44,.22,.03,.44,.06,.66,.09-.09-.01-.59-.08-.07,0,.51,.07,1.02,.14,1.53,.21,1.02,.14,2.05,.29,3.07,.43,1.9,.27,3.8,.55,5.7,.85,7.72,1.19,15.42,2.53,23.08,4.11,6.91,1.43,13.79,3.05,20.56,5.05,2.93,.87,5.83,1.81,8.7,2.87,.63,.23,1.27,.48,1.89,.72,.33,.13,.66,.26,.99,.39,.14,.06,.27,.12,.41,.17,.56,.21-.77-.34-.23-.1,1.15,.51,2.3,1.02,3.43,1.58,1.02,.51,2.03,1.05,3.01,1.63,.54,.32,1.06,.66,1.58,1.01,.18,.12,.34,.25,.51,.37-.02-.01-.64-.51-.26-.2,.28,.24,.57,.47,.84,.72,.51,.46,.99,.94,1.45,1.44,.25,.27,.49,.55,.73,.83,.1,.12,.2,.25,.3,.37,.39,.47-.45-.63-.11-.13,.83,1.21,1.62,2.42,2.29,3.72,.18,.35,.35,.69,.51,1.05,.07,.15,.48,1.07,.26,.55-.21-.49,.21,.53,.29,.74,.14,.38,.28,.76,.41,1.14,.52,1.52,.95,3.06,1.31,4.62,.38,1.64,.67,3.29,.92,4.95,.08,.51-.02-.16-.03-.22,.03,.25,.06,.51,.1,.76,.05,.39,.09,.77,.13,1.16,.1,.91,.17,1.83,.24,2.74,1.04,14.37-.95,28.76-2.42,43.03-.91,8.78-1.31,17.61-2.03,26.41-.95,11.63-2.12,23.24-3.43,34.83-2.24,19.7-5.33,39.29-7.61,58.98-.76,6.58-1.45,13.17-2.25,19.75-.2,1.68-.41,3.37-.63,5.05-.05,.37-.1,.75-.15,1.12-.07,.52,.02-.17,.03-.23-.03,.25-.07,.5-.1,.75-.12,.88-.24,1.75-.37,2.62-.49,3.37-1.02,6.74-1.62,10.09-1.19,6.6-2.64,13.16-4.57,19.58-.94,3.12-1.99,6.2-3.18,9.23-.26,.66-.53,1.32-.8,1.98,.39-.93-.09,.2-.19,.42-.17,.38-.33,.75-.5,1.13-.68,1.49-1.39,2.96-2.15,4.41-1.44,2.75-3.04,5.42-4.82,7.97-.39,.56-.79,1.12-1.2,1.67-.14,.18-.27,.36-.41,.55,.02-.03,.47-.6,.16-.21-.25,.31-.49,.62-.75,.93-.97,1.19-1.98,2.35-3.04,3.46-1.06,1.12-2.17,2.19-3.32,3.22-.56,.5-1.12,.99-1.7,1.46-.31,.26-.63,.51-.94,.76-.57,.46,.45-.33-.35,.27-2.59,1.91-5.31,3.61-8.18,5.07-.71,.36-1.44,.71-2.16,1.04-.4,.18-.8,.36-1.2,.53-.46,.2,.12-.05,.18-.08-.18,.07-.35,.15-.53,.21-1.57,.62-3.15,1.19-4.76,1.69-3.51,1.1-7.11,1.9-10.75,2.47-2.34,.37-3.64,3.3-3.07,5.4,.69,2.5,3.05,3.44,5.4,3.07,14.19-2.24,27.62-8.43,37.58-18.92,9.26-9.74,15.09-22.14,18.98-34.88,4.11-13.48,6.14-27.51,7.84-41.47,.81-6.7,1.52-13.42,2.3-20.12,.19-1.64,.38-3.28,.59-4.92,.09-.75,.19-1.5,.28-2.24,.05-.4,.1-.8,.16-1.2,.02-.17,.05-.34,.07-.51,.08-.65-.11,.79-.02,.15,.73-5.22,1.47-10.44,2.18-15.66,3.24-23.83,6.06-47.72,7.97-71.69,.68-8.58,1.11-17.18,2.02-25.74,.76-7.18,1.59-14.35,2.08-21.56,.51-7.52,.72-15.12-.07-22.63-.73-7.03-2.18-14.14-5.71-20.34-6.18-10.85-18.86-14.94-30.15-18.28-14.61-4.32-29.69-7.05-44.73-9.33-15.61-2.37-31.32-4.18-47.07-5.39-13.17-1.01-26.43-1.53-39.64-1.82-6.71-.14-13.6,.05-20.12,1.8-6.59,1.76-12.62,5.3-17.25,10.34-6.22,6.76-9.84,15.26-12.89,23.81-3.61,10.12-6.2,20.57-8.31,31.1-2.14,10.72-3.79,21.53-5.49,32.32-1.7,10.84-3.69,21.62-5.68,32.41-4.32,23.4-7.86,46.94-10.66,70.57-1.31,11.01-2.55,22.05-3.39,33.11-.57,7.46-.87,14.96-.56,22.43,.52,12.63,2.79,25.6,9.43,36.56,6.66,10.99,17.19,18.81,28.83,23.92,14.52,6.37,30.4,9.52,45.87,12.66,18.93,3.84,38.2,6.75,57.53,7.2,9.39,.22,18.76-.25,28.04-1.67,2.35-.36,3.64-3.31,3.07-5.4-.69-2.51-3.05-3.43-5.4-3.07Z"/>
        </g>
        <path class="cls-1" d="M1673.31,393.92c11.6,.19,23.19,1.49,34.7,2.93,2.29,.29,4.49-2.22,4.39-4.39-.12-2.62-1.94-4.08-4.39-4.39-11.51-1.43-23.09-2.74-34.7-2.93-2.3-.04-4.49,2.05-4.39,4.39,.11,2.41,1.93,4.35,4.39,4.39h0Z"/>
        <path class="cls-1" d="M1722.86,400.08c2.3,0,4.5-2.02,4.39-4.39-.11-2.38-1.93-4.39-4.39-4.39-2.3,0-4.5,2.02-4.39,4.39,.11,2.38,1.93,4.39,4.39,4.39h0Z"/>
      </g>
    </g>
  </g>
</svg>