<?xml version="1.0" encoding="UTF-8"?>
<svg id="Layer_2" data-name="Layer 2" xmlns="http://www.w3.org/2000/svg" viewBox="0 0 82.42 93.84">
  <defs>
    <style>
      .cls-1 {
        fill: #1d7ec0;
      }

      .cls-2 {
        fill: #1390c5;
      }

      .cls-3 {
        fill: #1f8fce;
      }

      .cls-4 {
        fill: #ebebeb;
      }

      .cls-5 {
        fill: #fefefe;
      }
    </style>
  </defs>
  <g id="Layer_1-2" data-name="Layer 1">
    <g>
      <path class="cls-1" d="M41.3,.03c13.19,0,26.37,.02,39.56-.03,1.37,0,1.65,.37,1.53,1.67-.75,7.92-1.42,15.85-2.12,23.77-.58,6.57-1.14,13.15-1.72,19.72-.69,7.92-1.4,15.85-2.1,23.77-.41,4.68-.82,9.37-1.17,14.05-.07,.95-.36,1.41-1.32,1.69-10.48,2.97-20.96,5.98-31.43,9-.72,.21-1.38,.23-2.11,.02-10.8-3.03-21.6-6.05-32.4-9.04-.86-.24-1.21-.61-1.29-1.56-.85-10.81-1.76-21.62-2.65-32.44-.68-8.33-1.32-16.67-2.01-25.01C1.43,17.5,.76,9.35,.01,1.2-.1-.03,.49,.02,1.33,.02c13.32,.01,26.65,0,39.97,0Zm-.34,64.04c-3.5-.71-6.99-1.47-10.5-2.12-.88-.16-1.07-.58-1.14-1.35-.15-1.85-.4-3.68-.58-5.53-.08-.81-.37-1.17-1.27-1.15-2.67,.06-5.35,.06-8.02,0-.89-.02-1.06,.32-.98,1.11,.44,4.63,.88,9.27,1.25,13.91,.07,.91,.43,1.22,1.25,1.41,1.45,.33,2.87,.8,4.31,1.19,5.14,1.4,10.29,2.79,15.44,4.18,.22,.26,.54,.23,.83,.31,0,2.8,.05,5.61-.01,8.41-.02,1.04,.16,1.32,1.27,.99,3.4-1.04,6.85-1.96,10.27-2.94,5.03-1.44,10.05-2.9,15.08-4.35,.69-.2,1.11-.42,1.21-1.32,.22-2.15,.38-4.3,.54-6.45,.29-3.81,.69-7.6,1.03-11.4,.21-2.37,.38-4.75,.59-7.12,.34-3.76,.71-7.51,1.04-11.27,.22-2.46,.37-4.93,.58-7.39,.34-3.89,.7-7.78,1.05-11.67,.14-1.52,.31-3.04,.44-4.56,.23-2.6,.42-5.2,.65-7.79,.08-.85-.3-1.07-1.11-1.07-10.51,.02-21.03,.02-31.54,0-.82,0-1.12,.26-1.1,1.09,.04,2.35-.06,4.71,.04,7.06,.06,1.31-.34,1.66-1.65,1.65-8.02-.06-16.04-.02-24.06-.04-1.05,0-1.64,.22-1.01,1.38,.37,2.54,.83,5.08,1.05,7.63,.11,1.19,.58,1.33,1.6,1.33,7.15-.04,14.3-.03,21.44-.03,.43,0,.86,0,1.28,0-.38,.43-.8,.64-1.23,.83-7.12,3.09-14.25,6.18-21.38,9.24-.77,.33-1.07,.65-.91,1.58,.48,2.8,.8,5.62,1.18,8.43,.41,.54,1.01,.3,1.51,.3,6.92,.02,13.85,.02,20.77,0,.76,0,1.4-.07,1.39,1.07-.05,4.47-.02,8.94-.02,13.42,0,.46,.03,.93-.6,1.02Z"/>
      <path class="cls-3" d="M14.87,19.25c-.62-1.16-.03-1.39,1.01-1.38,8.02,.02,16.04-.02,24.06,.04,1.31,0,1.71-.34,1.65-1.65-.11-2.35,0-4.7-.04-7.06-.01-.83,.28-1.09,1.1-1.09,10.51,.02,21.03,.02,31.54,0,.8,0,1.18,.22,1.11,1.07-.23,2.6-.43,5.2-.65,7.79-.13,1.52-.3,3.04-.44,4.56-.36,3.89-.72,7.78-1.05,11.67-.21,2.46-.37,4.93-.58,7.39-.33,3.76-.7,7.51-1.04,11.27-.21,2.37-.38,4.75-.59,7.12-.34,3.8-.74,7.6-1.03,11.4-.16,2.15-.32,4.3-.54,6.45-.09,.9-.52,1.13-1.21,1.32-5.03,1.45-10.05,2.9-15.08,4.35-3.42,.98-6.86,1.9-10.27,2.94-1.1,.34-1.29,.06-1.27-.99,.06-2.8,.01-5.61,.01-8.41,.19-.1,.39-.2,.58-.3,6.47-1.99,12.95-3.99,19.43-5.96,.56-.17,.66-.49,.7-.98,.24-2.74,.52-5.48,.76-8.23,.63-7.11,1.23-14.22,1.89-21.32,.1-1.1-.21-1.37-1.28-1.36-6.3,.05-12.59,.02-18.89,.02-.43,0-.85,0-1.28,0,.75-.61,1.56-.95,2.37-1.29,6.65-2.72,13.31-5.43,19.96-8.15,.52-.21,1.11-.29,1.09-1.13-.05-2.8-.03-5.61,0-8.41,0-.64-.22-.87-.86-.87-8.15,.03-16.3,.05-24.46,.07-.09-.03-.18-.03-.27,0-8.49-.01-16.98-.01-25.47-.07-1,0-.97,.52-.95,1.18Z"/>
      <path class="cls-4" d="M14.87,19.25c-.01-.66-.04-1.18,.95-1.18,8.49,.05,16.98,.05,25.47,.07,0,10.05,0,20.1,0,30.15-2.08,.01-4.17,.05-6.25,.04-5.71-.01-11.42-.04-17.13-.07-.38-2.81-.7-5.64-1.18-8.43-.16-.94,.14-1.25,.91-1.58,7.14-3.06,14.26-6.16,21.38-9.24,.43-.19,.86-.4,1.23-.83-.43,0-.86,0-1.28,0-7.15,0-14.3-.01-21.44,.03-1.02,0-1.49-.13-1.6-1.33-.23-2.56-.69-5.09-1.05-7.63Z"/>
      <path class="cls-4" d="M40.73,75.73c-5.15-1.39-10.29-2.78-15.44-4.18-1.44-.39-2.86-.86-4.31-1.19-.82-.19-1.18-.5-1.25-1.41-.37-4.64-.8-9.27-1.25-13.91-.08-.79,.09-1.13,.98-1.11,2.67,.05,5.35,.06,8.02,0,.9-.02,1.19,.34,1.27,1.15,.18,1.84,.42,3.68,.58,5.53,.06,.77,.26,1.19,1.14,1.35,3.51,.65,7,1.4,10.5,2.12,.11,.09,.22,.17,.33,.26,0,3.37,.01,6.73,0,10.1,0,.48,.27,1.14-.56,1.3Z"/>
      <path class="cls-2" d="M41.29,64.33c-.11-.09-.22-.17-.33-.26,.63-.08,.6-.55,.6-1.02,0-4.47-.03-8.95,.02-13.42,.01-1.14-.63-1.07-1.39-1.07-6.92,0-13.85,.01-20.77,0-.51,0-1.1,.24-1.51-.3,5.71,.02,11.42,.05,17.13,.07,2.08,0,4.17-.03,6.25-.04,.09,0,.19,0,.28,0,3.62,.02,7.24,.08,10.86,.03,1.12-.02,1.52,.25,1.39,1.42-.43,3.86-.79,7.72-1.14,11.59-.08,.83-.57,.98-1.26,1.11-3.28,.61-6.56,1.27-9.84,1.91-.09,0-.19,0-.28,0Z"/>
      <path class="cls-5" d="M42.14,75.74c-.82-.16-.56-.81-.56-1.3-.02-3.37,0-6.74,0-10.11,3.28-.64,6.55-1.3,9.84-1.91,.69-.13,1.19-.28,1.26-1.11,.36-3.86,.72-7.73,1.14-11.59,.13-1.17-.27-1.43-1.39-1.42-3.62,.05-7.24-.01-10.86-.03,0-10.06,0-20.11,0-30.17,8.15-.02,16.3-.03,24.46-.07,.65,0,.87,.23,.86,.87-.02,2.8-.04,5.61,0,8.41,.01,.84-.57,.92-1.09,1.13-6.65,2.72-13.31,5.43-19.96,8.15-.81,.33-1.62,.68-2.37,1.29,.43,0,.85,0,1.28,0,6.3,0,12.59,.02,18.89-.02,1.08,0,1.39,.26,1.28,1.36-.67,7.1-1.26,14.21-1.89,21.32-.24,2.74-.52,5.48-.76,8.23-.04,.49-.14,.81-.7,.98-6.48,1.97-12.95,3.97-19.43,5.96Z"/>
    </g>
  </g>
</svg>