<?xml version="1.0" encoding="UTF-8"?>
<svg id="Layer_2" data-name="Layer 2" xmlns="http://www.w3.org/2000/svg" viewBox="0 0 82.78 93.81">
  <defs>
    <style>
      .cls-1 {
        fill: #ecebea;
      }

      .cls-2 {
        fill: #f47a34;
      }

      .cls-3 {
        fill: #ef5b33;
      }

      .cls-4 {
        fill: #fefefe;
      }
    </style>
  </defs>
  <g id="Layer_1-2" data-name="Layer 1">
    <g>
      <path class="cls-3" d="M41.32,.03c13.37,0,26.74,.01,40.11-.03,1.15,0,1.44,.27,1.33,1.43-1.21,13.1-2.36,26.21-3.54,39.32-1.23,13.65-2.47,27.29-3.71,40.94-.26,2.88-.27,2.88-3.04,3.65-9.93,2.76-19.87,5.51-29.8,8.28-.84,.23-1.63,.3-2.51,.06-10.54-2.95-21.08-5.86-31.63-8.76-.82-.23-1.13-.62-1.2-1.46-.56-6.62-1.17-13.24-1.77-19.86-.78-8.74-1.57-17.47-2.35-26.21-.67-7.52-1.34-15.04-2-22.57C.82,10.34,.49,5.87,.03,1.42-.1,.24,.21,0,1.34,0,14.67,.04,27.99,.03,41.32,.03Zm.13,65.07l.03,.1c-3.67-.96-7.34-1.94-11.02-2.88-.61-.16-.71-.51-.75-1.06-.15-2.03-.39-4.05-.51-6.08-.06-1-.34-1.42-1.45-1.38-2.63,.09-5.26,.1-7.88,0-1.2-.04-1.31,.43-1.21,1.41,.46,4.63,.9,9.27,1.28,13.91,.07,.85,.39,1.14,1.14,1.34,4.45,1.2,8.89,2.45,13.34,3.66,2.35,.64,4.64,1.48,7.06,1.83l-.03,.1c0,3.08,.04,6.15,0,9.23-.01,1.07,.17,1.44,1.38,1.1,8.38-2.36,16.77-4.65,25.17-6.94,.75-.2,.92-.61,.96-1.36,.13-2.6,.35-5.21,.58-7.8,.32-3.58,.7-7.15,1.02-10.73,.22-2.46,.37-4.93,.6-7.4,.32-3.53,.71-7.06,1.03-10.59,.23-2.51,.37-5.02,.59-7.53,.33-3.85,.7-7.69,1.05-11.54,.21-2.28,.4-4.57,.62-6.85,.24-2.5,.49-5.01,.74-7.51,.08-.8-.2-1.12-1.06-1.12-10.52,.02-21.03,.02-31.55,0-.92,0-1.15,.34-1.14,1.19,.04,3.03,.02,6.06,.03,9.1-8.33,.02-16.65,.05-24.98,.02-.99,0-1.22,.27-1.11,1.22,.3,2.69,.53,5.39,.78,8.09,.64,7.06,1.28,14.12,1.88,21.18,.06,.72,.33,.9,.99,.89,7.47-.03,14.93-.04,22.4-.06,0,.06,.01,.12,.04,.18,0,5.43-.01,10.86-.02,16.3Z"/>
      <path class="cls-2" d="M41.47,17.28c0-3.03,.02-6.06-.03-9.1-.01-.86,.22-1.19,1.14-1.19,10.52,.03,21.03,.02,31.55,0,.86,0,1.14,.32,1.06,1.12-.26,2.5-.51,5-.74,7.51-.22,2.28-.41,4.57-.62,6.85-.35,3.85-.72,7.69-1.05,11.54-.22,2.51-.36,5.02-.59,7.53-.32,3.53-.71,7.06-1.03,10.59-.23,2.46-.37,4.93-.6,7.4-.32,3.58-.7,7.15-1.02,10.73-.23,2.6-.44,5.2-.58,7.8-.04,.75-.21,1.15-.96,1.36-8.39,2.29-16.79,4.58-25.17,6.94-1.21,.34-1.4-.03-1.38-1.1,.04-3.08,0-6.15,0-9.23,6.66-1.85,13.32-3.7,19.98-5.53,.81-.22,1.24-.49,1.32-1.49,.53-6.57,1.23-13.14,1.76-19.71,.29-3.6,.81-7.18,.86-10.8,.03-.19-.06-.24-.23-.19-7.9,0-15.79,0-23.69,.01l.03-.12c0-3.01-.01-6.02,0-9.04,0-.54,.09-1.09-.5-1.42,.17-.04,.33-.09,.5-.13,5.88,.02,11.76,.04,17.64,.06,2.13,0,4.25,0,6.38,0,.41,0,.94,.18,1-.55,.26-3.01,.53-6.02,.82-9.03,.06-.6-.16-.78-.75-.77-8.37,.03-16.74,.05-25.1,.07l.03-.1Z"/>
      <path class="cls-1" d="M41.46,27.62c-.17,.04-.33,.09-.5,.13-4.65,0-9.3,0-13.94,0-.15-.06-.21,0-.19,.15,.03,3.29,.57,6.55,.76,9.83,.04,.63,.48,.54,.87,.54,4.34-.02,8.67-.04,13.01-.06,0,0-.03,.12-.03,.12,0,3.43,0,6.86-.01,10.29-7.47,.02-14.93,.03-22.4,.06-.66,0-.93-.17-.99-.89-.6-7.06-1.24-14.12-1.88-21.18-.24-2.7-.47-5.4-.78-8.09-.11-.94,.13-1.22,1.11-1.22,8.33,.02,16.65,0,24.98-.02,0,0-.03,.1-.03,.1,0,3.41,.01,6.82,.02,10.23Z"/>
      <path class="cls-4" d="M41.43,48.62c0-3.43,0-6.86,.01-10.29,7.9,0,15.79,0,23.69-.01,.08,.06,.15,.12,.23,.19-.05,3.62-.56,7.2-.86,10.8-.53,6.57-1.23,13.14-1.76,19.71-.08,1-.51,1.27-1.32,1.49-6.66,1.83-13.32,3.68-19.98,5.53,0,0,.03-.1,.03-.1,0-3.58,0-7.16,0-10.74l-.03-.1c3.62-.95,7.23-1.9,10.85-2.84,.39-.1,.59-.28,.63-.72,.34-4,.7-8,1.07-11.99,.05-.57-.12-.82-.73-.81-3.93,.04-7.86,.05-11.8,.08-.03-.06-.04-.12-.04-.18Z"/>
      <path class="cls-1" d="M41.48,65.19c0,3.58,0,7.16,0,10.74-2.42-.35-4.72-1.19-7.06-1.83-4.45-1.2-8.89-2.46-13.34-3.66-.76-.2-1.07-.49-1.14-1.34-.37-4.64-.81-9.28-1.28-13.91-.1-.98,.02-1.46,1.21-1.41,2.63,.1,5.26,.09,7.88,0,1.11-.04,1.39,.38,1.45,1.38,.12,2.03,.36,4.05,.51,6.08,.04,.55,.14,.91,.75,1.06,3.68,.94,7.35,1.92,11.02,2.88Z"/>
      <path class="cls-2" d="M41.47,48.8c3.93-.02,7.86-.04,11.8-.08,.61,0,.78,.24,.73,.81-.37,4-.73,7.99-1.07,11.99-.04,.44-.23,.62-.63,.72-3.62,.94-7.23,1.89-10.85,2.84,0-5.43,.01-10.86,.02-16.3Z"/>
      <path class="cls-4" d="M41.46,27.62c0-3.41-.01-6.82-.02-10.23,8.37-.02,16.74-.03,25.1-.07,.59,0,.81,.18,.75,.77-.29,3.01-.56,6.02-.82,9.03-.06,.73-.59,.55-1,.55-2.13,.01-4.25,.01-6.38,0-5.88-.02-11.76-.04-17.64-.06Z"/>
      <path class="cls-3" d="M41.47,38.21c-4.34,.02-8.67,.04-13.01,.06-.39,0-.84,.09-.87-.54-.19-3.28-.73-6.53-.76-9.83,.09-.01,.15-.06,.19-.15,4.65,0,9.3,0,13.94,0,.59,.33,.5,.88,.5,1.42,0,3.01,0,6.02,0,9.04Z"/>
      <path class="cls-2" d="M27.01,27.75c-.03,.08-.1,.13-.19,.15-.02-.15,.04-.21,.19-.15Z"/>
    </g>
  </g>
</svg>