<?xml version="1.0" encoding="UTF-8"?>
<svg id="Layer_2" data-name="Layer 2" xmlns="http://www.w3.org/2000/svg" viewBox="0 0 277.51 270.64">
  <defs>
    <style>
      .cls-1 {
        fill: #ee3b68;
      }

      .cls-2 {
        fill: #451022;
      }

      .cls-3 {
        fill: #461022;
      }
    </style>
  </defs>
  <g id="Layer_1-2" data-name="Layer 1">
    <g>
      <path class="cls-2" d="M232.62,270.64H44.63c-.17-.38-.53-.24-.81-.27-2.23-.25-4.44-.62-6.61-1.16C15.38,263.75,.03,244.18,.02,221.63-.01,164.08,0,106.53,0,48.99c0-4.56,.65-9.01,1.87-13.39C7.67,14.91,26.97,.06,48.46,.03,108.65-.03,168.84,.01,229.03,.01c3.71,0,7.36,.51,10.96,1.35,18.61,4.31,33.65,20.33,36.76,39.07,.25,1.49,.21,3.03,.76,4.46V226.02c-.58,1.34-.52,2.79-.76,4.19-3.19,19.24-18.93,35.53-38.12,39.36-1.99,.4-4.01,.71-6.01,1.07Zm-27.99-151.84s-.03,0-.05,0c0-19.18,0-38.36,0-57.54,0-1.72-.17-1.88-1.88-1.88-7.26,0-14.52,0-21.78,0-2.12,0-2.17,.05-2.17,2.13,0,11.48-.01,22.96,.02,34.45,0,1-.24,1.27-1.25,1.18-7.37-.7-14.7-.26-21.84,1.66-17.64,4.74-29.55,15.66-35.03,33.22-2.59,8.28-2.34,16.76-.97,25.2,1.35,8.26,4.75,15.59,10.53,21.73,8.77,9.31,20,13.01,32.34,14.04,5.27,.44,10.54,.1,15.8-.47,8.65-.95,17.02-2.97,25.09-6.25,1.28-.52,1.86-1.29,1.76-2.7-.24-3.38-.54-6.76-.55-10.14-.05-18.21-.03-36.43-.03-54.64Zm-103.77,11.51c0-11.88,0-23.76,0-35.64,0-7.57,0-15.14,0-22.7,0-2.39-.32-2.7-2.75-2.7-6.95,0-13.9,0-20.86,0-1.86,0-2.23,.38-2.23,2.25,0,39.12,0,78.23,0,117.35,0,2.12,.34,2.47,2.44,2.47,6.86,0,13.73,0,20.59,0,2.51,0,2.8-.3,2.8-2.81,0-19.4,0-38.81,0-58.21Z"/>
      <path class="cls-1" d="M204.63,118.8c0,18.21-.03,36.43,.03,54.64,0,3.38,.31,6.76,.55,10.14,.1,1.41-.48,2.18-1.76,2.7-8.07,3.27-16.44,5.3-25.09,6.25-5.26,.57-10.53,.91-15.8,.47-12.34-1.04-23.57-4.73-32.34-14.04-5.78-6.14-9.18-13.47-10.53-21.73-1.38-8.45-1.62-16.92,.97-25.2,5.48-17.56,17.4-28.48,35.03-33.22,7.15-1.92,14.47-2.36,21.84-1.66,1,.1,1.25-.18,1.25-1.18-.04-11.48-.02-22.96-.02-34.45,0-2.09,.05-2.13,2.17-2.13,7.26,0,14.52,0,21.78,0,1.71,0,1.88,.16,1.88,1.88,0,19.18,0,38.36,0,57.54,.02,0,.03,0,.05,0Zm-25.87,25.75c0-8.05-.02-16.09,.03-24.14,0-1.07-.36-1.42-1.34-1.58-5.16-.88-10.27-.72-15.21,1.07-7.9,2.88-13.85,7.9-16.06,16.29-1.86,7.04-1.52,14.12,1.19,20.96,2.06,5.2,5.54,9.13,10.73,11.4,6.27,2.73,12.83,2.54,19.43,1.82,.98-.11,1.27-.55,1.26-1.54-.04-8.09-.02-16.18-.02-24.27Z"/>
      <path class="cls-1" d="M100.86,130.31c0,19.4,0,38.81,0,58.21,0,2.51-.29,2.81-2.8,2.81-6.86,0-13.73,0-20.59,0-2.1,0-2.44-.35-2.44-2.47,0-39.12,0-78.23,0-117.35,0-1.87,.37-2.25,2.23-2.25,6.95,0,13.9,0,20.86,0,2.43,0,2.75,.31,2.75,2.7,0,7.57,0,15.14,0,22.7,0,11.88,0,23.76,0,35.64Z"/>
      <path class="cls-3" d="M178.76,144.55c0,8.09-.02,16.18,.02,24.27,0,.99-.28,1.43-1.26,1.54-6.6,.72-13.16,.92-19.43-1.82-5.2-2.26-8.67-6.2-10.73-11.4-2.71-6.84-3.04-13.92-1.19-20.96,2.21-8.38,8.16-13.41,16.06-16.29,4.94-1.8,10.05-1.95,15.21-1.07,.98,.17,1.35,.51,1.34,1.58-.05,8.05-.03,16.09-.03,24.14Z"/>
    </g>
  </g>
</svg>