<?xml version="1.0" encoding="UTF-8"?>
<svg id="Layer_2" data-name="Layer 2" xmlns="http://www.w3.org/2000/svg" viewBox="0 0 82.96 93.87">
  <defs>
    <style>
      .cls-1 {
        fill: #f58333;
      }

      .cls-2 {
        fill: #fffdfc;
      }

      .cls-3 {
        fill: #ecebea;
      }

      .cls-4 {
        fill: #f69d38;
      }
    </style>
  </defs>
  <g id="Layer_1-2" data-name="Layer 1">
    <g>
      <path class="cls-1" d="M82.73,1.4c-.59,6.94-1.18,13.87-1.79,20.81-.58,6.62-1.19,13.24-1.79,19.85-.69,7.7-1.39,15.4-2.08,23.1-.55,6.12-1.12,12.25-1.62,18.37-.07,.9-.46,1.2-1.25,1.41-10.59,2.91-21.18,5.83-31.77,8.77-.73,.2-1.39,.2-2.11,0-10.54-2.93-21.08-5.85-31.64-8.74-.87-.24-1.24-.61-1.32-1.54-1.08-12.66-2.2-25.31-3.33-37.96C2.81,31.79,1.56,18.1,.32,4.41,.23,3.33,.17,2.25,.03,1.17-.08,.38,.09-.06,1,.07c.31,.04,.63,0,.95,0,26.69,0,53.38,0,80.07,0,.31,0,.62-.05,.94-.07V.54c-.42,.2-.28,.54-.23,.86ZM41.35,46.88c0,12.8,0,25.6,0,38.41,0,1.41,.15,1.51,1.47,1.14,8.3-2.3,16.59-4.6,24.9-6.85,.87-.24,1.24-.73,1.32-1.48,.23-2.37,.4-4.75,.59-7.12,.2-2.46,.36-4.93,.59-7.39,.32-3.53,.71-7.06,1.03-10.59,.23-2.51,.37-5.02,.59-7.53,.33-3.85,.71-7.69,1.05-11.54,.2-2.24,.38-4.48,.59-6.72,.34-3.76,.7-7.51,1.05-11.27,.22-2.42,.38-4.84,.7-7.24,.2-1.54,.21-1.65-1.32-1.65-10.33,0-20.66,.02-30.99-.03-1.25,0-1.59,.33-1.59,1.58,.05,12.76,.03,25.51,.03,38.27Zm-2.07,28.62c0-2.26,0-4.37,0-6.49-.02-12.57-.04-25.14-.05-37.71,0-4.25-.03-8.5,.02-12.75,.01-.97-.27-1.22-1.22-1.19-2.13,.07-4.26,.09-6.39,0-1.09-.05-1.26,.35-1.21,1.31,.15,2.98,.21,5.96,.31,8.95,.24,6.73,.49,13.46,.72,20.2,.16,4.56,.26,9.13,.43,13.69,.04,.94-.23,1.08-1.08,.8-1.33-.45-2.68-.83-4.04-1.14-.69-.16-.98-.45-1.01-1.17-.04-1.31-.2-2.61-.27-3.92-.04-.76-.38-1.1-1.15-1.2-1.43-.2-2.86-.46-4.27-.76-1.04-.22-1.44,0-1.32,1.17,.41,3.91,.77,7.82,1.08,11.74,.25,3.14,.21,3.15,3.18,3.98,5.35,1.49,10.7,2.97,16.26,4.52Z"/>
      <path class="cls-4" d="M41.35,46.88c0-12.76,.02-25.51-.03-38.27,0-1.25,.34-1.59,1.59-1.58,10.33,.05,20.66,.03,30.99,.03,1.53,0,1.52,.11,1.32,1.65-.31,2.4-.47,4.83-.7,7.24-.35,3.76-.7,7.51-1.05,11.27-.2,2.24-.38,4.48-.59,6.72-.35,3.85-.72,7.69-1.05,11.54-.22,2.51-.36,5.02-.59,7.53-.32,3.53-.71,7.06-1.03,10.59-.23,2.46-.39,4.93-.59,7.39-.19,2.37-.36,4.75-.59,7.12-.07,.75-.45,1.24-1.32,1.48-8.31,2.25-16.61,4.55-24.9,6.85-1.32,.36-1.47,.27-1.47-1.14,0-12.8,0-25.6,0-38.41Zm1.93-13.83c0,4.75,.04,9.5-.03,14.25-.02,1.17,.35,1.43,1.45,1.34,3.61-.28,7.23-.43,10.84-.7,.77-.06,1.02,.01,.94,.89-.38,3.91-.71,7.83-1,11.75-.06,.87-.36,1.22-1.23,1.43-3.34,.78-6.66,1.67-9.99,2.5-.54,.14-1.01,.2-1,.98,.04,3.08,.03,6.15,0,9.23,0,.77,.28,.77,.9,.59,5.87-1.65,11.75-3.28,17.63-4.88,.67-.18,.96-.47,1.01-1.18,.13-2.03,.35-4.05,.53-6.08,.71-7.87,1.4-15.75,2.14-23.62,.09-.92-.05-1.28-1.08-1.26-3.67,.06-7.34,0-11.01,.04-.93,.01-1.26-.2-1.2-1.19,.17-2.71,.29-5.42,.32-8.13,.01-1.15,.33-1.56,1.55-1.56,3.8,0,7.61-.16,11.41-.2,.88,0,1.14-.29,1.2-1.16,.16-2.52,.37-5.05,.7-7.56,.13-1.05-.2-1.19-1.12-1.19-7.25,.03-14.5,.04-21.75-.01-1.09,0-1.24,.38-1.23,1.33,.04,4.79,.02,9.59,.02,14.38Z"/>
      <path class="cls-3" d="M39.27,75.5c-5.56-1.54-10.91-3.02-16.26-4.52-2.97-.83-2.93-.84-3.18-3.98-.31-3.92-.67-7.83-1.08-11.74-.12-1.17,.28-1.39,1.32-1.17,1.41,.3,2.84,.56,4.27,.76,.77,.11,1.11,.44,1.15,1.2,.07,1.31,.23,2.61,.27,3.92,.02,.72,.32,1.01,1.01,1.17,1.36,.32,2.72,.7,4.04,1.14,.85,.29,1.12,.14,1.08-.8-.17-4.56-.28-9.13-.43-13.69-.23-6.73-.48-13.46-.72-20.2-.1-2.98-.16-5.97-.31-8.95-.05-.97,.12-1.36,1.21-1.31,2.12,.1,4.26,.08,6.39,0,.94-.03,1.23,.23,1.22,1.19-.05,4.25-.03,8.5-.02,12.75,.02,12.57,.04,25.14,.05,37.71,0,2.12,0,4.23,0,6.49Z"/>
      <path class="cls-2" d="M43.28,33.06c0-4.79,.02-9.59-.02-14.38,0-.94,.13-1.33,1.23-1.33,7.25,.05,14.5,.04,21.75,.01,.92,0,1.26,.14,1.12,1.19-.32,2.51-.54,5.03-.7,7.56-.06,.87-.32,1.15-1.2,1.16-3.8,.04-7.61,.2-11.41,.2-1.21,0-1.54,.4-1.55,1.56-.03,2.71-.15,5.42-.32,8.13-.06,.99,.27,1.2,1.2,1.19,3.67-.05,7.34,.01,11.01-.04,1.03-.02,1.17,.34,1.08,1.26-.74,7.87-1.43,15.75-2.14,23.62-.18,2.03-.39,4.05-.53,6.08-.05,.71-.34,1-1.01,1.18-5.88,1.6-11.76,3.23-17.63,4.88-.63,.18-.91,.17-.9-.59,.03-3.08,.03-6.15,0-9.23-.01-.78,.46-.85,1-.98,3.33-.83,6.65-1.72,9.99-2.5,.87-.2,1.17-.56,1.23-1.43,.29-3.92,.61-7.84,1-11.75,.09-.87-.16-.94-.94-.89-3.61,.26-7.23,.42-10.84,.7-1.11,.09-1.47-.17-1.45-1.34,.07-4.75,.03-9.5,.03-14.25Z"/>
    </g>
  </g>
</svg>