<?xml version="1.0" encoding="UTF-8"?>
<svg id="Layer_2" data-name="Layer 2" xmlns="http://www.w3.org/2000/svg" viewBox="0 0 125.94 122.96">
  <defs>
    <style>
      .cls-1 {
        fill: #54a1d8;
      }

      .cls-2 {
        fill: #071b33;
      }

      .cls-3 {
        fill: #54a0d7;
      }

      .cls-4 {
        fill: #55a1d8;
      }

      .cls-5 {
        fill: #353c50;
      }
    </style>
  </defs>
  <g id="Layer_1-2" data-name="Layer 1">
    <g>
      <path class="cls-2" d="M0,104.5V18.47c.55-.16,.38-.66,.48-1.03C2.65,9.31,7.63,3.8,15.64,1.06,16.85,.64,18.21,.8,19.31,0h1.26c.62,.68,1.44,.41,2.17,.41,26.81,.01,53.62,.01,80.44,0,.73,0,1.55,.28,2.17-.41,.28,0,.56,0,.84,0,.14,.13,.27,.35,.42,.36,9.19,.61,19.38,9.59,19.33,22.18-.1,26.08,0,52.17-.04,78.26-.01,12.08-9.86,22.07-21.95,22.11-27.35,.07-54.69,.06-82.04,0-9.76-.02-18.37-6.76-21.1-16.16-.22-.75-.08-1.67-.81-2.24ZM103.23,35.99c-8.29-.2-15.39,2.29-20.57,9.1-4.29,5.64-5.37,12.13-5.04,19,.96,19.92,16.64,26.58,32.73,22.68,1.13-.27,1.78-.91,1.73-2.22-.08-2.24-.06-4.48,0-6.71,.04-1.43-.46-1.64-1.77-1.2-2.47,.84-5.08,.97-7.66,.92-6.53-.13-11.38-3.56-13.43-9.46-.86-2.46-1.15-5.03-1.02-7.63,.35-7.19,3.92-12.47,9.79-14.13,4.06-1.15,8.17-.92,12.12,.63,1.51,.59,2.16,.6,2.06-1.29-.12-2.16-.13-4.34,0-6.5,.1-1.61-.66-2.28-2.05-2.6-2.27-.53-4.57-.53-6.88-.58ZM13.45,59.18c0,8.53,0,17.06,0,25.59,0,1.2-.07,2.15,1.68,2.14,9.44-.07,18.88-.05,28.32-.01,1.06,0,1.5-.36,1.64-1.38,.33-2.49,.65-4.98,1.14-7.43,.3-1.54-.17-1.9-1.66-1.89-6.01,.07-12.03-.05-18.04,.08-1.96,.04-2.6-.38-2.59-2.49,.1-13.42,.03-26.85,.08-40.27,0-1.5-.28-2.15-1.94-2.04-2.16,.15-4.34,.13-6.5,0-1.65-.1-2.17,.42-2.15,2.12,.08,8.53,.04,17.06,.04,25.59Zm48.29-9.12c-.19-1.22-.39-2.04-.43-2.87-.08-1.75-.88-2.44-2.68-2.32-2.02,.14-4.06,.09-6.08,0-1.15-.05-1.44,.38-1.35,1.46,.18,2.16,.36,4.32,.37,6.49,.05,10.56,.07,21.12,0,31.68-.01,1.74,.28,2.57,2.26,2.4,2.08-.18,4.2-.13,6.29-.01,1.55,.09,2.04-.36,2.02-1.97-.08-7.97,0-15.95-.08-23.92-.02-1.48,.55-2.33,1.68-3.06,2.61-1.68,5.52-2.44,8.55-2.32,1.84,.07,2.07-.65,2-2.16-.1-2.3-.02-4.62-.03-6.92,0-2.66-.06-2.72-2.68-2.43-.34,.04-.68,.14-1.02,.21-3.57,.75-6.24,2.94-8.85,5.75Z"/>
      <path class="cls-5" d="M105.35,0c-.62,.68-1.44,.41-2.17,.41-26.81,.01-53.62,.01-80.44,0-.73,0-1.55,.28-2.17-.41H105.35Z"/>
      <path class="cls-3" d="M103.23,35.99c2.31,.05,4.61,.05,6.88,.58,1.39,.33,2.16,.99,2.05,2.6-.14,2.16-.12,4.34,0,6.5,.1,1.88-.55,1.88-2.06,1.29-3.94-1.55-8.05-1.78-12.12-.63-5.88,1.67-9.44,6.94-9.79,14.13-.13,2.61,.17,5.17,1.02,7.63,2.05,5.9,6.9,9.33,13.43,9.46,2.58,.05,5.19-.08,7.66-.92,1.31-.45,1.8-.23,1.77,1.2-.06,2.24-.08,4.48,0,6.71,.05,1.32-.6,1.95-1.73,2.22-16.1,3.9-31.78-2.76-32.73-22.68-.33-6.87,.75-13.36,5.04-19,5.18-6.81,12.29-9.3,20.57-9.1Z"/>
      <path class="cls-1" d="M13.45,59.18c0-8.53,.04-17.06-.04-25.59-.02-1.69,.5-2.22,2.15-2.12,2.16,.13,4.34,.14,6.5,0,1.66-.11,1.95,.54,1.94,2.04-.05,13.42,.02,26.85-.08,40.27-.02,2.1,.63,2.53,2.59,2.49,6.01-.13,12.03,0,18.04-.08,1.49-.02,1.97,.35,1.66,1.89-.49,2.46-.81,4.95-1.14,7.43-.14,1.03-.58,1.38-1.64,1.38-9.44-.04-18.88-.06-28.32,.01-1.75,.01-1.68-.94-1.68-2.14,.02-8.53,0-17.06,0-25.59Z"/>
      <path class="cls-4" d="M61.74,50.06c2.61-2.81,5.28-5.01,8.85-5.75,.34-.07,.68-.17,1.02-.21,2.62-.29,2.68-.23,2.68,2.43,0,2.31-.07,4.62,.03,6.92,.06,1.51-.16,2.23-2,2.16-3.03-.12-5.94,.64-8.55,2.32-1.14,.73-1.7,1.58-1.68,3.06,.09,7.97,0,15.95,.08,23.92,.02,1.61-.48,2.06-2.02,1.97-2.09-.12-4.21-.17-6.29,.01-1.98,.17-2.27-.66-2.26-2.4,.07-10.56,.04-21.12,0-31.68,0-2.16-.19-4.33-.37-6.49-.09-1.07,.2-1.5,1.35-1.46,2.03,.08,4.06,.13,6.08,0,1.79-.13,2.59,.57,2.68,2.32,.04,.83,.24,1.65,.43,2.87Z"/>
    </g>
  </g>
</svg>