<?xml version="1.0" encoding="UTF-8"?>
<svg id="Layer_2" data-name="Layer 2" xmlns="http://www.w3.org/2000/svg" viewBox="0 0 204.47 204.47">
  <defs>
    <style>
      .cls-1 {
        fill: #fff;
      }

      .cls-2 {
        fill: #29abe2;
      }

      .cls-3 {
        fill: #666;
      }
    </style>
  </defs>
  <g id="Layer_1-2" data-name="Layer 1">
    <g>
      <circle class="cls-1" cx="102.23" cy="102.23" r="102.23"/>
      <g id="Layer_2-2" data-name="Layer 2">
        <g id="Layer_1-2" data-name="Layer 1-2">
          <path class="cls-3" d="M42,99.99l26.19,26.19h0l-18.11,18.11c-4.45,4.45-11.67,4.44-16.12-.01,0,0-.01-.01-.02-.02l-10.04-10.04c-4.45-4.45-4.45-11.66,0-16.11l18.11-18.11h0Z"/>
          <path class="cls-3" d="M110.16,47.95l10.04,10.04c4.45,4.45,4.45,11.67,0,16.12,0,0,0,0,0,0l-18.1,18.1h0l-26.16-26.16h0l18.1-18.1c4.45-4.45,11.66-4.46,16.12-.01,0,0,0,0,0,0Z"/>
          <path class="cls-3" d="M80.23,77.86l48.56,48.56h0l-18.13,18.13c-4.45,4.43-11.65,4.42-16.09-.02l-48.56-48.56h0l18.1-18.1c4.45-4.45,11.66-4.46,16.12-.01,0,0,0,0,0,0Z"/>
          <path class="cls-2" d="M140.09,77.87l40.49,40.49c4.45,4.45,4.45,11.67,0,16.12h0l-10.07,10.07c-4.45,4.43-11.65,4.42-16.09-.02l-48.56-48.56h0l18.1-18.1c4.45-4.45,11.66-4.46,16.12-.01,0,0,0,0,.01,.01Z"/>
        </g>
      </g>
    </g>
  </g>
</svg>