<?xml version="1.0" encoding="UTF-8"?>
<svg id="Layer_2" data-name="Layer 2" xmlns="http://www.w3.org/2000/svg" viewBox="0 0 227.78 222.11">
  <defs>
    <style>
      .cls-1 {
        fill: #56a0d7;
      }

      .cls-2 {
        fill: #082035;
      }

      .cls-3 {
        fill: #082036;
      }
    </style>
  </defs>
  <g id="Layer_1-2" data-name="Layer 1">
    <g>
      <path class="cls-2" d="M190.57,222.11H36.82c-.82-.33-1.7-.28-2.55-.42-8.63-1.41-16.12-5.09-22.34-11.25-5.89-5.85-9.63-12.86-11.23-21.02-.27-1.37-.26-2.79-.71-4.13V37.05c.34-.89,.27-1.84,.42-2.76C1.82,25.72,5.44,18.25,11.57,12.09,19.32,4.29,28.74,.19,39.73,.07c12.43-.13,24.86-.03,37.29-.03,36.66,0,73.32,0,109.98,0,3.56,0,7.06,.36,10.5,1.26,17.98,4.72,30.26,20.57,30.26,39.15,.01,47.1,0,94.19,0,141.29,0,3.01-.33,5.99-.97,8.93-3.47,15.85-16.74,28.38-32.65,30.91-1.19,.19-2.42,.16-3.58,.54ZM51.25,106.96c0,16.16,0,32.32,0,48.49,0,1.29,.26,1.55,1.54,1.55,5.72,0,11.45,0,17.17,0,1.62,0,1.91-.29,1.91-1.94,0-9.62,.01-19.23-.02-28.85,0-.8,.22-1,1-.99,3.38,.05,6.76,.24,10.15,.14,5.83-.17,11.59-.76,17.15-2.56,9.16-2.96,16.16-8.53,20.05-17.47,3.02-6.96,3.48-14.3,2.14-21.73-1.04-5.77-3.44-10.92-7.42-15.28-4.06-4.45-9.07-7.36-14.74-9.26-6.06-2.03-12.33-2.56-18.67-2.58-9.65-.04-19.28,.46-28.93,.54-1.13,.01-1.35,.28-1.35,1.54,0,16.13,0,32.26,0,48.39Zm81.87,37.83c0,2.62,.02,5.25,0,7.87-.01,1.09,.45,1.82,1.43,2.22,1.31,.53,2.61,1.11,3.96,1.53,6.2,1.93,12.58,2.64,19.05,2.57,4.85-.05,9.63-.61,14.25-2.18,5.69-1.93,10.37-5.18,13.49-10.41,2.31-3.88,3.18-8.12,3.01-12.61-.18-4.78-1.74-8.99-4.96-12.57-2.96-3.3-6.8-5.28-10.63-7.3-3.77-1.99-7.9-3.14-11.74-4.95-2.19-1.03-4.47-1.92-6.27-3.64-1.23-1.18-1.88-2.55-1.47-4.25,.43-1.8,1.63-2.83,3.4-3.32,3-.84,6.04-.84,9.11-.56,5.63,.5,11.09,1.58,16.19,4.14,1.45,.73,2.55,.35,2.52-1.53-.08-4.71-.02-9.42-.03-14.14,0-.38-.07-.75-.09-1.13-.04-.8-.5-1.26-1.21-1.53-1.88-.73-3.8-1.35-5.78-1.73-4.67-.9-9.39-1.24-14.14-1.24-4.62,0-9.22,.38-13.6,2.02-9.75,3.65-15.7,10.31-16.25,21.05-.35,6.86,2.44,12.41,7.58,16.79,3.75,3.2,8.13,5.41,12.67,7.27,3.23,1.33,6.54,2.46,9.66,4.06,1.3,.67,2.5,1.47,3.46,2.6,1.43,1.69,1.39,3.85-.09,5.51-.86,.97-2.01,1.41-3.21,1.71-3.48,.88-7.02,.77-10.55,.41-6.37-.65-12.42-2.37-18.02-5.54-1.31-.74-1.74-.5-1.75,1-.01,2.62,0,5.25,0,7.87Z"/>
      <path class="cls-1" d="M51.25,106.96c0-16.13,0-32.26,0-48.39,0-1.26,.22-1.53,1.35-1.54,9.64-.09,19.28-.58,28.93-.54,6.33,.02,12.6,.55,18.67,2.58,5.67,1.9,10.68,4.82,14.74,9.26,3.98,4.36,6.38,9.52,7.42,15.28,1.34,7.43,.89,14.77-2.14,21.73-3.89,8.94-10.89,14.51-20.05,17.47-5.57,1.8-11.33,2.4-17.15,2.56-3.39,.1-6.77-.09-10.15-.14-.78-.01-1,.19-1,.99,.03,9.61,.02,19.23,.02,28.85,0,1.64-.29,1.94-1.91,1.94-5.72,0-11.45,0-17.17,0-1.28,0-1.54-.26-1.54-1.55,0-16.16,0-32.32,0-48.49Zm27.98-31.61c-2.18,0-4.36,.02-6.53-.01-.63,0-.77,.23-.77,.83,.02,10.12,.02,20.23,0,30.35,0,.64,.21,.74,.79,.79,2.53,.25,5.05,.13,7.58,.15,4.07,.04,8.06-.55,11.89-1.92,4.31-1.54,7.7-4.16,9.26-8.67,.46-1.32,.64-2.69,.77-4.07,.36-3.99-.28-7.75-2.66-11.06-2.21-3.08-5.4-4.63-8.96-5.59-3.74-1.01-7.55-1-11.38-.79Z"/>
      <path class="cls-1" d="M133.12,144.8c0-2.62,0-5.25,0-7.87,0-1.5,.44-1.74,1.75-1,5.6,3.16,11.65,4.89,18.02,5.54,3.53,.36,7.07,.47,10.55-.41,1.19-.3,2.34-.75,3.21-1.71,1.48-1.65,1.52-3.82,.09-5.51-.96-1.13-2.16-1.94-3.46-2.6-3.12-1.6-6.43-2.73-9.66-4.06-4.54-1.86-8.91-4.07-12.67-7.27-5.14-4.38-7.93-9.93-7.58-16.79,.55-10.74,6.5-17.4,16.25-21.05,4.37-1.64,8.98-2.01,13.6-2.02,4.74,0,9.47,.34,14.14,1.24,1.98,.38,3.9,1,5.78,1.73,.71,.28,1.16,.73,1.21,1.53,.02,.38,.09,.75,.09,1.13,0,4.71-.05,9.43,.03,14.14,.03,1.88-1.07,2.26-2.52,1.53-5.11-2.57-10.57-3.64-16.19-4.14-3.07-.27-6.11-.27-9.11,.56-1.76,.49-2.97,1.52-3.4,3.32-.41,1.7,.24,3.07,1.47,4.25,1.8,1.72,4.08,2.61,6.27,3.64,3.84,1.81,7.97,2.96,11.74,4.95,3.83,2.02,7.67,4,10.63,7.3,3.21,3.59,4.77,7.79,4.96,12.57,.17,4.49-.7,8.73-3.01,12.61-3.12,5.24-7.81,8.48-13.49,10.41-4.62,1.57-9.4,2.14-14.25,2.18-6.47,.06-12.85-.64-19.05-2.57-1.35-.42-2.65-.99-3.96-1.53-.98-.4-1.44-1.13-1.43-2.22,.03-2.62,0-5.25,.01-7.87Z"/>
      <path class="cls-3" d="M79.22,75.35c3.82-.22,7.64-.23,11.38,.79,3.56,.96,6.75,2.51,8.96,5.59,2.38,3.31,3.03,7.07,2.66,11.06-.13,1.38-.31,2.76-.77,4.07-1.57,4.51-4.96,7.12-9.26,8.67-3.83,1.37-7.82,1.96-11.89,1.92-2.53-.02-5.06,.1-7.58-.15-.58-.06-.8-.15-.79-.79,.02-10.12,.02-20.23,0-30.35,0-.6,.14-.83,.77-.83,2.18,.03,4.35,.01,6.53,.01Z"/>
    </g>
  </g>
</svg>